solid OpenSCAD_Model
  facet normal -0.998796 0 -0.0490661
    outer loop
      vertex 18.4473 0 8.5
      vertex 18.4367 28.85 8.71537
      vertex 18.4473 28.85 8.5
    endloop
  endfacet
  facet normal -0.998796 -0 -0.0490661
    outer loop
      vertex 18.4367 28.85 8.71537
      vertex 18.4473 0 8.5
      vertex 18.4367 0 8.71537
    endloop
  endfacet
  facet normal 0.998796 0 -0.0490661
    outer loop
      vertex 14.0633 0 8.71537
      vertex 14.0527 28.85 8.5
      vertex 14.0633 28.85 8.71537
    endloop
  endfacet
  facet normal 0.998796 0 -0.0490661
    outer loop
      vertex 14.0527 28.85 8.5
      vertex 14.0633 0 8.71537
      vertex 14.0527 0 8.5
    endloop
  endfacet
  facet normal 0.0490658 0 -0.998796
    outer loop
      vertex 16.0346 0 10.6867
      vertex 16.25 28.85 10.6973
      vertex 16.25 0 10.6973
    endloop
  endfacet
  facet normal 0.0490658 0 -0.998796
    outer loop
      vertex 16.25 28.85 10.6973
      vertex 16.0346 0 10.6867
      vertex 16.0346 28.85 10.6867
    endloop
  endfacet
  facet normal -0.0490658 0 0.998796
    outer loop
      vertex 16.25 28.85 6.30273
      vertex 16.4654 0 6.31331
      vertex 16.4654 28.85 6.31331
    endloop
  endfacet
  facet normal -0.0490658 0 0.998796
    outer loop
      vertex 16.4654 0 6.31331
      vertex 16.25 28.85 6.30273
      vertex 16.25 0 6.30273
    endloop
  endfacet
  facet normal -0.671559 0 -0.740951
    outer loop
      vertex 17.6439 0 10.1985
      vertex 17.8037 28.85 10.0537
      vertex 17.8037 0 10.0537
    endloop
  endfacet
  facet normal -0.671559 0 -0.740951
    outer loop
      vertex 17.8037 28.85 10.0537
      vertex 17.6439 0 10.1985
      vertex 17.6439 28.85 10.1985
    endloop
  endfacet
  facet normal 0.671559 0 -0.740951
    outer loop
      vertex 14.6963 0 10.0537
      vertex 14.8561 28.85 10.1985
      vertex 14.8561 0 10.1985
    endloop
  endfacet
  facet normal 0.671559 0 -0.740951
    outer loop
      vertex 14.8561 28.85 10.1985
      vertex 14.6963 0 10.0537
      vertex 14.6963 28.85 10.0537
    endloop
  endfacet
  facet normal 0.427555 0 -0.903989
    outer loop
      vertex 15.2142 0 10.4378
      vertex 15.4091 28.85 10.53
      vertex 15.4091 0 10.53
    endloop
  endfacet
  facet normal 0.427555 0 -0.903989
    outer loop
      vertex 15.4091 28.85 10.53
      vertex 15.2142 0 10.4378
      vertex 15.2142 28.85 10.4378
    endloop
  endfacet
  facet normal -0.903989 0 -0.427555
    outer loop
      vertex 18.28 0 9.34086
      vertex 18.1878 28.85 9.53578
      vertex 18.28 28.85 9.34086
    endloop
  endfacet
  facet normal -0.903989 -0 -0.427555
    outer loop
      vertex 18.1878 28.85 9.53578
      vertex 18.28 0 9.34086
      vertex 18.1878 0 9.53578
    endloop
  endfacet
  facet normal -0.336891 0 -0.941544
    outer loop
      vertex 16.8878 0 10.6027
      vertex 17.0909 28.85 10.53
      vertex 17.0909 0 10.53
    endloop
  endfacet
  facet normal -0.336891 0 -0.941544
    outer loop
      vertex 17.0909 28.85 10.53
      vertex 16.8878 0 10.6027
      vertex 16.8878 28.85 10.6027
    endloop
  endfacet
  facet normal -0.514104 0 -0.857728
    outer loop
      vertex 17.2858 0 10.4378
      vertex 17.4707 28.85 10.327
      vertex 17.4707 0 10.327
    endloop
  endfacet
  facet normal -0.514104 0 -0.857728
    outer loop
      vertex 17.4707 28.85 10.327
      vertex 17.2858 0 10.4378
      vertex 17.2858 28.85 10.4378
    endloop
  endfacet
  facet normal 0.903989 0 -0.427555
    outer loop
      vertex 14.3122 0 9.53578
      vertex 14.22 28.85 9.34086
      vertex 14.3122 28.85 9.53578
    endloop
  endfacet
  facet normal 0.903989 0 -0.427555
    outer loop
      vertex 14.22 28.85 9.34086
      vertex 14.3122 0 9.53578
      vertex 14.22 0 9.34086
    endloop
  endfacet
  facet normal 0.514104 0 -0.857728
    outer loop
      vertex 15.0293 0 10.327
      vertex 15.2142 28.85 10.4378
      vertex 15.2142 0 10.4378
    endloop
  endfacet
  facet normal 0.514104 0 -0.857728
    outer loop
      vertex 15.2142 28.85 10.4378
      vertex 15.0293 0 10.327
      vertex 15.0293 28.85 10.327
    endloop
  endfacet
  facet normal 0.242981 0 -0.970031
    outer loop
      vertex 15.6122 0 10.6027
      vertex 15.8213 28.85 10.655
      vertex 15.8213 0 10.655
    endloop
  endfacet
  facet normal 0.242981 0 -0.970031
    outer loop
      vertex 15.8213 28.85 10.655
      vertex 15.6122 0 10.6027
      vertex 15.6122 28.85 10.6027
    endloop
  endfacet
  facet normal -0.970032 0 0.242977
    outer loop
      vertex 18.3527 0 7.86217
      vertex 18.405 28.85 8.07133
      vertex 18.3527 28.85 7.86217
    endloop
  endfacet
  facet normal -0.970032 0 0.242977
    outer loop
      vertex 18.405 28.85 8.07133
      vertex 18.3527 0 7.86217
      vertex 18.405 0 8.07133
    endloop
  endfacet
  facet normal -0.146729 0 0.989177
    outer loop
      vertex 16.4654 28.85 6.31331
      vertex 16.6787 0 6.34495
      vertex 16.6787 28.85 6.34495
    endloop
  endfacet
  facet normal -0.146729 0 0.989177
    outer loop
      vertex 16.6787 0 6.34495
      vertex 16.4654 28.85 6.31331
      vertex 16.4654 0 6.31331
    endloop
  endfacet
  facet normal -0.970032 0 -0.242977
    outer loop
      vertex 18.405 0 8.92867
      vertex 18.3527 28.85 9.13783
      vertex 18.405 28.85 8.92867
    endloop
  endfacet
  facet normal -0.970032 -0 -0.242977
    outer loop
      vertex 18.3527 28.85 9.13783
      vertex 18.405 0 8.92867
      vertex 18.3527 0 9.13783
    endloop
  endfacet
  facet normal -0.989177 0 -0.146729
    outer loop
      vertex 18.4367 0 8.71537
      vertex 18.405 28.85 8.92867
      vertex 18.4367 28.85 8.71537
    endloop
  endfacet
  facet normal -0.989177 -0 -0.146729
    outer loop
      vertex 18.405 28.85 8.92867
      vertex 18.4367 0 8.71537
      vertex 18.405 0 8.92867
    endloop
  endfacet
  facet normal -0.941544 0 -0.336891
    outer loop
      vertex 18.3527 0 9.13783
      vertex 18.28 28.85 9.34086
      vertex 18.3527 28.85 9.13783
    endloop
  endfacet
  facet normal -0.941544 -0 -0.336891
    outer loop
      vertex 18.28 28.85 9.34086
      vertex 18.3527 0 9.13783
      vertex 18.28 0 9.34086
    endloop
  endfacet
  facet normal -0.803207 0 -0.5957
    outer loop
      vertex 18.077 0 9.72074
      vertex 17.9485 28.85 9.89393
      vertex 18.077 28.85 9.72074
    endloop
  endfacet
  facet normal -0.803207 -0 -0.5957
    outer loop
      vertex 17.9485 28.85 9.89393
      vertex 18.077 0 9.72074
      vertex 17.9485 0 9.89393
    endloop
  endfacet
  facet normal -0.740951 0 -0.671559
    outer loop
      vertex 17.9485 0 9.89393
      vertex 17.8037 28.85 10.0537
      vertex 17.9485 28.85 9.89393
    endloop
  endfacet
  facet normal -0.740951 -0 -0.671559
    outer loop
      vertex 17.8037 28.85 10.0537
      vertex 17.9485 0 9.89393
      vertex 17.8037 0 10.0537
    endloop
  endfacet
  facet normal -0.857726 0 -0.514107
    outer loop
      vertex 18.1878 0 9.53578
      vertex 18.077 28.85 9.72074
      vertex 18.1878 28.85 9.53578
    endloop
  endfacet
  facet normal -0.857726 -0 -0.514107
    outer loop
      vertex 18.077 28.85 9.72074
      vertex 18.1878 0 9.53578
      vertex 18.077 0 9.72074
    endloop
  endfacet
  facet normal -0.146729 0 -0.989177
    outer loop
      vertex 16.4654 0 10.6867
      vertex 16.6787 28.85 10.655
      vertex 16.6787 0 10.655
    endloop
  endfacet
  facet normal -0.146729 0 -0.989177
    outer loop
      vertex 16.6787 28.85 10.655
      vertex 16.4654 0 10.6867
      vertex 16.4654 28.85 10.6867
    endloop
  endfacet
  facet normal -0.242981 0 -0.970031
    outer loop
      vertex 16.6787 0 10.655
      vertex 16.8878 28.85 10.6027
      vertex 16.8878 0 10.6027
    endloop
  endfacet
  facet normal -0.242981 0 -0.970031
    outer loop
      vertex 16.8878 28.85 10.6027
      vertex 16.6787 0 10.655
      vertex 16.6787 28.85 10.655
    endloop
  endfacet
  facet normal -0.0490658 0 -0.998796
    outer loop
      vertex 16.25 0 10.6973
      vertex 16.4654 28.85 10.6867
      vertex 16.4654 0 10.6867
    endloop
  endfacet
  facet normal -0.0490658 0 -0.998796
    outer loop
      vertex 16.4654 28.85 10.6867
      vertex 16.25 0 10.6973
      vertex 16.25 28.85 10.6973
    endloop
  endfacet
  facet normal -0.427555 0 -0.903989
    outer loop
      vertex 17.0909 0 10.53
      vertex 17.2858 28.85 10.4378
      vertex 17.2858 0 10.4378
    endloop
  endfacet
  facet normal -0.427555 0 -0.903989
    outer loop
      vertex 17.2858 28.85 10.4378
      vertex 17.0909 0 10.53
      vertex 17.0909 28.85 10.53
    endloop
  endfacet
  facet normal -0.5957 0 -0.803207
    outer loop
      vertex 17.4707 0 10.327
      vertex 17.6439 28.85 10.1985
      vertex 17.6439 0 10.1985
    endloop
  endfacet
  facet normal -0.5957 0 -0.803207
    outer loop
      vertex 17.6439 28.85 10.1985
      vertex 17.4707 0 10.327
      vertex 17.4707 28.85 10.327
    endloop
  endfacet
  facet normal 0.970031 0 -0.242981
    outer loop
      vertex 14.1473 0 9.13783
      vertex 14.095 28.85 8.92867
      vertex 14.1473 28.85 9.13783
    endloop
  endfacet
  facet normal 0.970031 0 -0.242981
    outer loop
      vertex 14.095 28.85 8.92867
      vertex 14.1473 0 9.13783
      vertex 14.095 0 8.92867
    endloop
  endfacet
  facet normal 0.803207 0 -0.5957
    outer loop
      vertex 14.5515 0 9.89393
      vertex 14.423 28.85 9.72074
      vertex 14.5515 28.85 9.89393
    endloop
  endfacet
  facet normal 0.803207 0 -0.5957
    outer loop
      vertex 14.423 28.85 9.72074
      vertex 14.5515 0 9.89393
      vertex 14.423 0 9.72074
    endloop
  endfacet
  facet normal 0.740951 0 -0.671559
    outer loop
      vertex 14.6963 0 10.0537
      vertex 14.5515 28.85 9.89393
      vertex 14.6963 28.85 10.0537
    endloop
  endfacet
  facet normal 0.740951 0 -0.671559
    outer loop
      vertex 14.5515 28.85 9.89393
      vertex 14.6963 0 10.0537
      vertex 14.5515 0 9.89393
    endloop
  endfacet
  facet normal 0.857728 0 -0.514104
    outer loop
      vertex 14.423 0 9.72074
      vertex 14.3122 28.85 9.53578
      vertex 14.423 28.85 9.72074
    endloop
  endfacet
  facet normal 0.857728 0 -0.514104
    outer loop
      vertex 14.3122 28.85 9.53578
      vertex 14.423 0 9.72074
      vertex 14.3122 0 9.53578
    endloop
  endfacet
  facet normal 0.941544 0 -0.336891
    outer loop
      vertex 14.22 0 9.34086
      vertex 14.1473 28.85 9.13783
      vertex 14.22 28.85 9.34086
    endloop
  endfacet
  facet normal 0.941544 0 -0.336891
    outer loop
      vertex 14.1473 28.85 9.13783
      vertex 14.22 0 9.34086
      vertex 14.1473 0 9.13783
    endloop
  endfacet
  facet normal 0.989177 0 -0.146729
    outer loop
      vertex 14.095 0 8.92867
      vertex 14.0633 28.85 8.71537
      vertex 14.095 28.85 8.92867
    endloop
  endfacet
  facet normal 0.989177 0 -0.146729
    outer loop
      vertex 14.0633 28.85 8.71537
      vertex 14.095 0 8.92867
      vertex 14.0633 0 8.71537
    endloop
  endfacet
  facet normal 0.5957 0 -0.803207
    outer loop
      vertex 14.8561 0 10.1985
      vertex 15.0293 28.85 10.327
      vertex 15.0293 0 10.327
    endloop
  endfacet
  facet normal 0.5957 0 -0.803207
    outer loop
      vertex 15.0293 28.85 10.327
      vertex 14.8561 0 10.1985
      vertex 14.8561 28.85 10.1985
    endloop
  endfacet
  facet normal 0.336891 0 -0.941544
    outer loop
      vertex 15.4091 0 10.53
      vertex 15.6122 28.85 10.6027
      vertex 15.6122 0 10.6027
    endloop
  endfacet
  facet normal 0.336891 0 -0.941544
    outer loop
      vertex 15.6122 28.85 10.6027
      vertex 15.4091 0 10.53
      vertex 15.4091 28.85 10.53
    endloop
  endfacet
  facet normal 0.146729 0 -0.989177
    outer loop
      vertex 15.8213 0 10.655
      vertex 16.0346 28.85 10.6867
      vertex 16.0346 0 10.6867
    endloop
  endfacet
  facet normal 0.146729 0 -0.989177
    outer loop
      vertex 16.0346 28.85 10.6867
      vertex 15.8213 0 10.655
      vertex 15.8213 28.85 10.655
    endloop
  endfacet
  facet normal -0.998796 0 0.0490661
    outer loop
      vertex 18.4367 0 8.28463
      vertex 18.4473 28.85 8.5
      vertex 18.4367 28.85 8.28463
    endloop
  endfacet
  facet normal -0.998796 0 0.0490661
    outer loop
      vertex 18.4473 28.85 8.5
      vertex 18.4367 0 8.28463
      vertex 18.4473 0 8.5
    endloop
  endfacet
  facet normal -0.740951 0 0.671559
    outer loop
      vertex 17.8037 0 6.9463
      vertex 17.9485 28.85 7.10607
      vertex 17.8037 28.85 6.9463
    endloop
  endfacet
  facet normal -0.740951 0 0.671559
    outer loop
      vertex 17.9485 28.85 7.10607
      vertex 17.8037 0 6.9463
      vertex 17.9485 0 7.10607
    endloop
  endfacet
  facet normal 0.903989 -0 0.427555
    outer loop
      vertex 14.22 0 7.65914
      vertex 14.3122 28.85 7.46422
      vertex 14.22 28.85 7.65914
    endloop
  endfacet
  facet normal 0.903989 0 0.427555
    outer loop
      vertex 14.3122 28.85 7.46422
      vertex 14.22 0 7.65914
      vertex 14.3122 0 7.46422
    endloop
  endfacet
  facet normal 0.803207 -0 0.5957
    outer loop
      vertex 14.423 0 7.27926
      vertex 14.5515 28.85 7.10607
      vertex 14.423 28.85 7.27926
    endloop
  endfacet
  facet normal 0.803207 0 0.5957
    outer loop
      vertex 14.5515 28.85 7.10607
      vertex 14.423 0 7.27926
      vertex 14.5515 0 7.10607
    endloop
  endfacet
  facet normal -0.989177 0 0.146729
    outer loop
      vertex 18.405 0 8.07133
      vertex 18.4367 28.85 8.28463
      vertex 18.405 28.85 8.07133
    endloop
  endfacet
  facet normal -0.989177 0 0.146729
    outer loop
      vertex 18.4367 28.85 8.28463
      vertex 18.405 0 8.07133
      vertex 18.4367 0 8.28463
    endloop
  endfacet
  facet normal -0.803207 0 0.5957
    outer loop
      vertex 17.9485 0 7.10607
      vertex 18.077 28.85 7.27926
      vertex 17.9485 28.85 7.10607
    endloop
  endfacet
  facet normal -0.803207 0 0.5957
    outer loop
      vertex 18.077 28.85 7.27926
      vertex 17.9485 0 7.10607
      vertex 18.077 0 7.27926
    endloop
  endfacet
  facet normal -0.903989 0 0.427555
    outer loop
      vertex 18.1878 0 7.46422
      vertex 18.28 28.85 7.65914
      vertex 18.1878 28.85 7.46422
    endloop
  endfacet
  facet normal -0.903989 0 0.427555
    outer loop
      vertex 18.28 28.85 7.65914
      vertex 18.1878 0 7.46422
      vertex 18.28 0 7.65914
    endloop
  endfacet
  facet normal 0.242981 0 0.970031
    outer loop
      vertex 15.6122 28.85 6.39735
      vertex 15.8213 0 6.34495
      vertex 15.8213 28.85 6.34495
    endloop
  endfacet
  facet normal 0.242981 0 0.970031
    outer loop
      vertex 15.8213 0 6.34495
      vertex 15.6122 28.85 6.39735
      vertex 15.6122 0 6.39735
    endloop
  endfacet
  facet normal 0.740951 -0 0.671559
    outer loop
      vertex 14.5515 0 7.10607
      vertex 14.6963 28.85 6.9463
      vertex 14.5515 28.85 7.10607
    endloop
  endfacet
  facet normal 0.740951 0 0.671559
    outer loop
      vertex 14.6963 28.85 6.9463
      vertex 14.5515 0 7.10607
      vertex 14.6963 0 6.9463
    endloop
  endfacet
  facet normal 0.970031 -0 0.242981
    outer loop
      vertex 14.095 0 8.07133
      vertex 14.1473 28.85 7.86217
      vertex 14.095 28.85 8.07133
    endloop
  endfacet
  facet normal 0.970031 0 0.242981
    outer loop
      vertex 14.1473 28.85 7.86217
      vertex 14.095 0 8.07133
      vertex 14.1473 0 7.86217
    endloop
  endfacet
  facet normal 0.941544 -0 0.336891
    outer loop
      vertex 14.1473 0 7.86217
      vertex 14.22 28.85 7.65914
      vertex 14.1473 28.85 7.86217
    endloop
  endfacet
  facet normal 0.941544 0 0.336891
    outer loop
      vertex 14.22 28.85 7.65914
      vertex 14.1473 0 7.86217
      vertex 14.22 0 7.65914
    endloop
  endfacet
  facet normal -0.427555 0 0.903989
    outer loop
      vertex 17.0909 28.85 6.46999
      vertex 17.2858 0 6.56218
      vertex 17.2858 28.85 6.56218
    endloop
  endfacet
  facet normal -0.427555 0 0.903989
    outer loop
      vertex 17.2858 0 6.56218
      vertex 17.0909 28.85 6.46999
      vertex 17.0909 0 6.46999
    endloop
  endfacet
  facet normal -0.336891 0 0.941544
    outer loop
      vertex 16.8878 28.85 6.39735
      vertex 17.0909 0 6.46999
      vertex 17.0909 28.85 6.46999
    endloop
  endfacet
  facet normal -0.336891 0 0.941544
    outer loop
      vertex 17.0909 0 6.46999
      vertex 16.8878 28.85 6.39735
      vertex 16.8878 0 6.39735
    endloop
  endfacet
  facet normal -0.242981 0 0.970031
    outer loop
      vertex 16.6787 28.85 6.34495
      vertex 16.8878 0 6.39735
      vertex 16.8878 28.85 6.39735
    endloop
  endfacet
  facet normal -0.242981 0 0.970031
    outer loop
      vertex 16.8878 0 6.39735
      vertex 16.6787 28.85 6.34495
      vertex 16.6787 0 6.34495
    endloop
  endfacet
  facet normal -0.857726 0 0.514107
    outer loop
      vertex 18.077 0 7.27926
      vertex 18.1878 28.85 7.46422
      vertex 18.077 28.85 7.27926
    endloop
  endfacet
  facet normal -0.857726 0 0.514107
    outer loop
      vertex 18.1878 28.85 7.46422
      vertex 18.077 0 7.27926
      vertex 18.1878 0 7.46422
    endloop
  endfacet
  facet normal -0.671559 0 0.740951
    outer loop
      vertex 17.6439 28.85 6.80149
      vertex 17.8037 0 6.9463
      vertex 17.8037 28.85 6.9463
    endloop
  endfacet
  facet normal -0.671559 0 0.740951
    outer loop
      vertex 17.8037 0 6.9463
      vertex 17.6439 28.85 6.80149
      vertex 17.6439 0 6.80149
    endloop
  endfacet
  facet normal -0.5957 0 0.803207
    outer loop
      vertex 17.4707 28.85 6.67304
      vertex 17.6439 0 6.80149
      vertex 17.6439 28.85 6.80149
    endloop
  endfacet
  facet normal -0.5957 0 0.803207
    outer loop
      vertex 17.6439 0 6.80149
      vertex 17.4707 28.85 6.67304
      vertex 17.4707 0 6.67304
    endloop
  endfacet
  facet normal -0.514104 0 0.857728
    outer loop
      vertex 17.2858 28.85 6.56218
      vertex 17.4707 0 6.67304
      vertex 17.4707 28.85 6.67304
    endloop
  endfacet
  facet normal -0.514104 0 0.857728
    outer loop
      vertex 17.4707 0 6.67304
      vertex 17.2858 28.85 6.56218
      vertex 17.2858 0 6.56218
    endloop
  endfacet
  facet normal -0.941544 0 0.336891
    outer loop
      vertex 18.28 0 7.65914
      vertex 18.3527 28.85 7.86217
      vertex 18.28 28.85 7.65914
    endloop
  endfacet
  facet normal -0.941544 0 0.336891
    outer loop
      vertex 18.3527 28.85 7.86217
      vertex 18.28 0 7.65914
      vertex 18.3527 0 7.86217
    endloop
  endfacet
  facet normal 0.0490658 0 0.998796
    outer loop
      vertex 16.0346 28.85 6.31331
      vertex 16.25 0 6.30273
      vertex 16.25 28.85 6.30273
    endloop
  endfacet
  facet normal 0.0490658 0 0.998796
    outer loop
      vertex 16.25 0 6.30273
      vertex 16.0346 28.85 6.31331
      vertex 16.0346 0 6.31331
    endloop
  endfacet
  facet normal 0.336891 0 0.941544
    outer loop
      vertex 15.4091 28.85 6.46999
      vertex 15.6122 0 6.39735
      vertex 15.6122 28.85 6.39735
    endloop
  endfacet
  facet normal 0.336891 0 0.941544
    outer loop
      vertex 15.6122 0 6.39735
      vertex 15.4091 28.85 6.46999
      vertex 15.4091 0 6.46999
    endloop
  endfacet
  facet normal 0.857728 -0 0.514104
    outer loop
      vertex 14.3122 0 7.46422
      vertex 14.423 28.85 7.27926
      vertex 14.3122 28.85 7.46422
    endloop
  endfacet
  facet normal 0.857728 0 0.514104
    outer loop
      vertex 14.423 28.85 7.27926
      vertex 14.3122 0 7.46422
      vertex 14.423 0 7.27926
    endloop
  endfacet
  facet normal 0.989177 -0 0.146729
    outer loop
      vertex 14.0633 0 8.28463
      vertex 14.095 28.85 8.07133
      vertex 14.0633 28.85 8.28463
    endloop
  endfacet
  facet normal 0.989177 0 0.146729
    outer loop
      vertex 14.095 28.85 8.07133
      vertex 14.0633 0 8.28463
      vertex 14.095 0 8.07133
    endloop
  endfacet
  facet normal 0.998796 -0 0.0490661
    outer loop
      vertex 14.0527 0 8.5
      vertex 14.0633 28.85 8.28463
      vertex 14.0527 28.85 8.5
    endloop
  endfacet
  facet normal 0.998796 0 0.0490661
    outer loop
      vertex 14.0633 28.85 8.28463
      vertex 14.0527 0 8.5
      vertex 14.0633 0 8.28463
    endloop
  endfacet
  facet normal 0.146729 0 0.989177
    outer loop
      vertex 15.8213 28.85 6.34495
      vertex 16.0346 0 6.31331
      vertex 16.0346 28.85 6.31331
    endloop
  endfacet
  facet normal 0.146729 0 0.989177
    outer loop
      vertex 16.0346 0 6.31331
      vertex 15.8213 28.85 6.34495
      vertex 15.8213 0 6.34495
    endloop
  endfacet
  facet normal 0.5957 0 0.803207
    outer loop
      vertex 14.8561 28.85 6.80149
      vertex 15.0293 0 6.67304
      vertex 15.0293 28.85 6.67304
    endloop
  endfacet
  facet normal 0.5957 0 0.803207
    outer loop
      vertex 15.0293 0 6.67304
      vertex 14.8561 28.85 6.80149
      vertex 14.8561 0 6.80149
    endloop
  endfacet
  facet normal 0.671559 0 0.740951
    outer loop
      vertex 14.6963 28.85 6.9463
      vertex 14.8561 0 6.80149
      vertex 14.8561 28.85 6.80149
    endloop
  endfacet
  facet normal 0.671559 0 0.740951
    outer loop
      vertex 14.8561 0 6.80149
      vertex 14.6963 28.85 6.9463
      vertex 14.6963 0 6.9463
    endloop
  endfacet
  facet normal 0.427555 0 0.903989
    outer loop
      vertex 15.2142 28.85 6.56218
      vertex 15.4091 0 6.46999
      vertex 15.4091 28.85 6.46999
    endloop
  endfacet
  facet normal 0.427555 0 0.903989
    outer loop
      vertex 15.4091 0 6.46999
      vertex 15.2142 28.85 6.56218
      vertex 15.2142 0 6.56218
    endloop
  endfacet
  facet normal 0.514104 0 0.857728
    outer loop
      vertex 15.0293 28.85 6.67304
      vertex 15.2142 0 6.56218
      vertex 15.2142 28.85 6.56218
    endloop
  endfacet
  facet normal 0.514104 0 0.857728
    outer loop
      vertex 15.2142 0 6.56218
      vertex 15.0293 28.85 6.67304
      vertex 15.0293 0 6.67304
    endloop
  endfacet
  facet normal -0.998795 0 -0.0490749
    outer loop
      vertex 50.9473 0 8.5
      vertex 50.9367 28.85 8.71537
      vertex 50.9473 28.85 8.5
    endloop
  endfacet
  facet normal -0.998795 -0 -0.0490749
    outer loop
      vertex 50.9367 28.85 8.71537
      vertex 50.9473 0 8.5
      vertex 50.9367 0 8.71537
    endloop
  endfacet
  facet normal 0.998796 0 -0.0490572
    outer loop
      vertex 46.5633 0 8.71537
      vertex 46.5527 28.85 8.5
      vertex 46.5633 28.85 8.71537
    endloop
  endfacet
  facet normal 0.998796 0 -0.0490572
    outer loop
      vertex 46.5527 28.85 8.5
      vertex 46.5633 0 8.71537
      vertex 46.5527 0 8.5
    endloop
  endfacet
  facet normal 0.0490658 0 -0.998796
    outer loop
      vertex 48.5346 0 10.6867
      vertex 48.75 28.85 10.6973
      vertex 48.75 0 10.6973
    endloop
  endfacet
  facet normal 0.0490658 0 -0.998796
    outer loop
      vertex 48.75 28.85 10.6973
      vertex 48.5346 0 10.6867
      vertex 48.5346 28.85 10.6867
    endloop
  endfacet
  facet normal -0.0490658 0 0.998796
    outer loop
      vertex 48.75 28.85 6.30273
      vertex 48.9654 0 6.31331
      vertex 48.9654 28.85 6.31331
    endloop
  endfacet
  facet normal -0.0490658 0 0.998796
    outer loop
      vertex 48.9654 0 6.31331
      vertex 48.75 28.85 6.30273
      vertex 48.75 0 6.30273
    endloop
  endfacet
  facet normal -0.67155 0 -0.740959
    outer loop
      vertex 50.1439 0 10.1985
      vertex 50.3037 28.85 10.0537
      vertex 50.3037 0 10.0537
    endloop
  endfacet
  facet normal -0.67155 0 -0.740959
    outer loop
      vertex 50.3037 28.85 10.0537
      vertex 50.1439 0 10.1985
      vertex 50.1439 28.85 10.1985
    endloop
  endfacet
  facet normal 0.671559 0 -0.740951
    outer loop
      vertex 47.1963 0 10.0537
      vertex 47.3561 28.85 10.1985
      vertex 47.3561 0 10.1985
    endloop
  endfacet
  facet normal 0.671559 0 -0.740951
    outer loop
      vertex 47.3561 28.85 10.1985
      vertex 47.1963 0 10.0537
      vertex 47.1963 28.85 10.0537
    endloop
  endfacet
  facet normal 0.427555 0 -0.903989
    outer loop
      vertex 47.7142 0 10.4378
      vertex 47.9091 28.85 10.53
      vertex 47.9091 0 10.53
    endloop
  endfacet
  facet normal 0.427555 0 -0.903989
    outer loop
      vertex 47.9091 28.85 10.53
      vertex 47.7142 0 10.4378
      vertex 47.7142 28.85 10.4378
    endloop
  endfacet
  facet normal -0.903989 0 -0.427555
    outer loop
      vertex 50.78 0 9.34086
      vertex 50.6878 28.85 9.53578
      vertex 50.78 28.85 9.34086
    endloop
  endfacet
  facet normal -0.903989 -0 -0.427555
    outer loop
      vertex 50.6878 28.85 9.53578
      vertex 50.78 0 9.34086
      vertex 50.6878 0 9.53578
    endloop
  endfacet
  facet normal -0.336888 0 -0.941545
    outer loop
      vertex 49.3878 0 10.6027
      vertex 49.5909 28.85 10.53
      vertex 49.5909 0 10.53
    endloop
  endfacet
  facet normal -0.336888 0 -0.941545
    outer loop
      vertex 49.5909 28.85 10.53
      vertex 49.3878 0 10.6027
      vertex 49.3878 28.85 10.6027
    endloop
  endfacet
  facet normal -0.514104 0 -0.857728
    outer loop
      vertex 49.7858 0 10.4378
      vertex 49.9707 28.85 10.327
      vertex 49.9707 0 10.327
    endloop
  endfacet
  facet normal -0.514104 0 -0.857728
    outer loop
      vertex 49.9707 28.85 10.327
      vertex 49.7858 0 10.4378
      vertex 49.7858 28.85 10.4378
    endloop
  endfacet
  facet normal 0.903989 0 -0.427555
    outer loop
      vertex 46.8122 0 9.53578
      vertex 46.72 28.85 9.34086
      vertex 46.8122 28.85 9.53578
    endloop
  endfacet
  facet normal 0.903989 0 -0.427555
    outer loop
      vertex 46.72 28.85 9.34086
      vertex 46.8122 0 9.53578
      vertex 46.72 0 9.34086
    endloop
  endfacet
  facet normal 0.514104 0 -0.857728
    outer loop
      vertex 47.5293 0 10.327
      vertex 47.7142 28.85 10.4378
      vertex 47.7142 0 10.4378
    endloop
  endfacet
  facet normal 0.514104 0 -0.857728
    outer loop
      vertex 47.7142 28.85 10.4378
      vertex 47.5293 0 10.327
      vertex 47.5293 28.85 10.327
    endloop
  endfacet
  facet normal 0.242981 0 -0.970031
    outer loop
      vertex 48.1122 0 10.6027
      vertex 48.3213 28.85 10.655
      vertex 48.3213 0 10.655
    endloop
  endfacet
  facet normal 0.242981 0 -0.970031
    outer loop
      vertex 48.3213 28.85 10.655
      vertex 48.1122 0 10.6027
      vertex 48.1122 28.85 10.6027
    endloop
  endfacet
  facet normal -0.970034 0 0.242969
    outer loop
      vertex 50.8527 0 7.86217
      vertex 50.905 28.85 8.07133
      vertex 50.8527 28.85 7.86217
    endloop
  endfacet
  facet normal -0.970034 0 0.242969
    outer loop
      vertex 50.905 28.85 8.07133
      vertex 50.8527 0 7.86217
      vertex 50.905 0 8.07133
    endloop
  endfacet
  facet normal -0.146729 0 0.989177
    outer loop
      vertex 48.9654 28.85 6.31331
      vertex 49.1787 0 6.34495
      vertex 49.1787 28.85 6.34495
    endloop
  endfacet
  facet normal -0.146729 0 0.989177
    outer loop
      vertex 49.1787 0 6.34495
      vertex 48.9654 28.85 6.31331
      vertex 48.9654 0 6.31331
    endloop
  endfacet
  facet normal -0.970034 0 -0.242969
    outer loop
      vertex 50.905 0 8.92867
      vertex 50.8527 28.85 9.13783
      vertex 50.905 28.85 8.92867
    endloop
  endfacet
  facet normal -0.970034 -0 -0.242969
    outer loop
      vertex 50.8527 28.85 9.13783
      vertex 50.905 0 8.92867
      vertex 50.8527 0 9.13783
    endloop
  endfacet
  facet normal -0.989177 0 -0.146729
    outer loop
      vertex 50.9367 0 8.71537
      vertex 50.905 28.85 8.92867
      vertex 50.9367 28.85 8.71537
    endloop
  endfacet
  facet normal -0.989177 -0 -0.146729
    outer loop
      vertex 50.905 28.85 8.92867
      vertex 50.9367 0 8.71537
      vertex 50.905 0 8.92867
    endloop
  endfacet
  facet normal -0.941544 0 -0.336891
    outer loop
      vertex 50.8527 0 9.13783
      vertex 50.78 28.85 9.34086
      vertex 50.8527 28.85 9.13783
    endloop
  endfacet
  facet normal -0.941544 -0 -0.336891
    outer loop
      vertex 50.78 28.85 9.34086
      vertex 50.8527 0 9.13783
      vertex 50.78 0 9.34086
    endloop
  endfacet
  facet normal -0.803211 0 -0.595695
    outer loop
      vertex 50.577 0 9.72074
      vertex 50.4485 28.85 9.89393
      vertex 50.577 28.85 9.72074
    endloop
  endfacet
  facet normal -0.803211 -0 -0.595695
    outer loop
      vertex 50.4485 28.85 9.89393
      vertex 50.577 0 9.72074
      vertex 50.4485 0 9.89393
    endloop
  endfacet
  facet normal -0.740956 0 -0.671554
    outer loop
      vertex 50.4485 0 9.89393
      vertex 50.3037 28.85 10.0537
      vertex 50.4485 28.85 9.89393
    endloop
  endfacet
  facet normal -0.740956 -0 -0.671554
    outer loop
      vertex 50.3037 28.85 10.0537
      vertex 50.4485 0 9.89393
      vertex 50.3037 0 10.0537
    endloop
  endfacet
  facet normal -0.857722 0 -0.514113
    outer loop
      vertex 50.6878 0 9.53578
      vertex 50.577 28.85 9.72074
      vertex 50.6878 28.85 9.53578
    endloop
  endfacet
  facet normal -0.857722 -0 -0.514113
    outer loop
      vertex 50.577 28.85 9.72074
      vertex 50.6878 0 9.53578
      vertex 50.577 0 9.72074
    endloop
  endfacet
  facet normal -0.146729 0 -0.989177
    outer loop
      vertex 48.9654 0 10.6867
      vertex 49.1787 28.85 10.655
      vertex 49.1787 0 10.655
    endloop
  endfacet
  facet normal -0.146729 0 -0.989177
    outer loop
      vertex 49.1787 28.85 10.655
      vertex 48.9654 0 10.6867
      vertex 48.9654 28.85 10.6867
    endloop
  endfacet
  facet normal -0.242981 0 -0.970031
    outer loop
      vertex 49.1787 0 10.655
      vertex 49.3878 28.85 10.6027
      vertex 49.3878 0 10.6027
    endloop
  endfacet
  facet normal -0.242981 0 -0.970031
    outer loop
      vertex 49.3878 28.85 10.6027
      vertex 49.1787 0 10.655
      vertex 49.1787 28.85 10.655
    endloop
  endfacet
  facet normal -0.0490658 0 -0.998796
    outer loop
      vertex 48.75 0 10.6973
      vertex 48.9654 28.85 10.6867
      vertex 48.9654 0 10.6867
    endloop
  endfacet
  facet normal -0.0490658 0 -0.998796
    outer loop
      vertex 48.9654 28.85 10.6867
      vertex 48.75 0 10.6973
      vertex 48.75 28.85 10.6973
    endloop
  endfacet
  facet normal -0.427562 0 -0.903986
    outer loop
      vertex 49.5909 0 10.53
      vertex 49.7858 28.85 10.4378
      vertex 49.7858 0 10.4378
    endloop
  endfacet
  facet normal -0.427562 0 -0.903986
    outer loop
      vertex 49.7858 28.85 10.4378
      vertex 49.5909 0 10.53
      vertex 49.5909 28.85 10.53
    endloop
  endfacet
  facet normal -0.5957 0 -0.803207
    outer loop
      vertex 49.9707 0 10.327
      vertex 50.1439 28.85 10.1985
      vertex 50.1439 0 10.1985
    endloop
  endfacet
  facet normal -0.5957 0 -0.803207
    outer loop
      vertex 50.1439 28.85 10.1985
      vertex 49.9707 0 10.327
      vertex 49.9707 28.85 10.327
    endloop
  endfacet
  facet normal 0.97003 0 -0.242985
    outer loop
      vertex 46.6473 0 9.13783
      vertex 46.595 28.85 8.92867
      vertex 46.6473 28.85 9.13783
    endloop
  endfacet
  facet normal 0.97003 0 -0.242985
    outer loop
      vertex 46.595 28.85 8.92867
      vertex 46.6473 0 9.13783
      vertex 46.595 0 8.92867
    endloop
  endfacet
  facet normal 0.803203 0 -0.595706
    outer loop
      vertex 47.0515 0 9.89393
      vertex 46.923 28.85 9.72074
      vertex 47.0515 28.85 9.89393
    endloop
  endfacet
  facet normal 0.803203 0 -0.595706
    outer loop
      vertex 46.923 28.85 9.72074
      vertex 47.0515 0 9.89393
      vertex 46.923 0 9.72074
    endloop
  endfacet
  facet normal 0.740956 0 -0.671554
    outer loop
      vertex 47.1963 0 10.0537
      vertex 47.0515 28.85 9.89393
      vertex 47.1963 28.85 10.0537
    endloop
  endfacet
  facet normal 0.740956 0 -0.671554
    outer loop
      vertex 47.0515 28.85 9.89393
      vertex 47.1963 0 10.0537
      vertex 47.0515 0 9.89393
    endloop
  endfacet
  facet normal 0.85773 0 -0.5141
    outer loop
      vertex 46.923 0 9.72074
      vertex 46.8122 28.85 9.53578
      vertex 46.923 28.85 9.72074
    endloop
  endfacet
  facet normal 0.85773 0 -0.5141
    outer loop
      vertex 46.8122 28.85 9.53578
      vertex 46.923 0 9.72074
      vertex 46.8122 0 9.53578
    endloop
  endfacet
  facet normal 0.941544 0 -0.336891
    outer loop
      vertex 46.72 0 9.34086
      vertex 46.6473 28.85 9.13783
      vertex 46.72 28.85 9.34086
    endloop
  endfacet
  facet normal 0.941544 0 -0.336891
    outer loop
      vertex 46.6473 28.85 9.13783
      vertex 46.72 0 9.34086
      vertex 46.6473 0 9.13783
    endloop
  endfacet
  facet normal 0.989177 0 -0.146729
    outer loop
      vertex 46.595 0 8.92867
      vertex 46.5633 28.85 8.71537
      vertex 46.595 28.85 8.92867
    endloop
  endfacet
  facet normal 0.989177 0 -0.146729
    outer loop
      vertex 46.5633 28.85 8.71537
      vertex 46.595 0 8.92867
      vertex 46.5633 0 8.71537
    endloop
  endfacet
  facet normal 0.5957 0 -0.803207
    outer loop
      vertex 47.3561 0 10.1985
      vertex 47.5293 28.85 10.327
      vertex 47.5293 0 10.327
    endloop
  endfacet
  facet normal 0.5957 0 -0.803207
    outer loop
      vertex 47.5293 28.85 10.327
      vertex 47.3561 0 10.1985
      vertex 47.3561 28.85 10.1985
    endloop
  endfacet
  facet normal 0.336888 0 -0.941545
    outer loop
      vertex 47.9091 0 10.53
      vertex 48.1122 28.85 10.6027
      vertex 48.1122 0 10.6027
    endloop
  endfacet
  facet normal 0.336888 0 -0.941545
    outer loop
      vertex 48.1122 28.85 10.6027
      vertex 47.9091 0 10.53
      vertex 47.9091 28.85 10.53
    endloop
  endfacet
  facet normal 0.146729 0 -0.989177
    outer loop
      vertex 48.3213 0 10.655
      vertex 48.5346 28.85 10.6867
      vertex 48.5346 0 10.6867
    endloop
  endfacet
  facet normal 0.146729 0 -0.989177
    outer loop
      vertex 48.5346 28.85 10.6867
      vertex 48.3213 0 10.655
      vertex 48.3213 28.85 10.655
    endloop
  endfacet
  facet normal -0.514104 0 0.857728
    outer loop
      vertex 49.7858 28.85 6.56218
      vertex 49.9707 0 6.67304
      vertex 49.9707 28.85 6.67304
    endloop
  endfacet
  facet normal -0.514104 0 0.857728
    outer loop
      vertex 49.9707 0 6.67304
      vertex 49.7858 28.85 6.56218
      vertex 49.7858 0 6.56218
    endloop
  endfacet
  facet normal -0.740956 0 0.671554
    outer loop
      vertex 50.3037 0 6.9463
      vertex 50.4485 28.85 7.10607
      vertex 50.3037 28.85 6.9463
    endloop
  endfacet
  facet normal -0.740956 0 0.671554
    outer loop
      vertex 50.4485 28.85 7.10607
      vertex 50.3037 0 6.9463
      vertex 50.4485 0 7.10607
    endloop
  endfacet
  facet normal 0.903989 -0 0.427555
    outer loop
      vertex 46.72 0 7.65914
      vertex 46.8122 28.85 7.46422
      vertex 46.72 28.85 7.65914
    endloop
  endfacet
  facet normal 0.903989 0 0.427555
    outer loop
      vertex 46.8122 28.85 7.46422
      vertex 46.72 0 7.65914
      vertex 46.8122 0 7.46422
    endloop
  endfacet
  facet normal -0.427562 0 0.903986
    outer loop
      vertex 49.5909 28.85 6.46999
      vertex 49.7858 0 6.56218
      vertex 49.7858 28.85 6.56218
    endloop
  endfacet
  facet normal -0.427562 0 0.903986
    outer loop
      vertex 49.7858 0 6.56218
      vertex 49.5909 28.85 6.46999
      vertex 49.5909 0 6.46999
    endloop
  endfacet
  facet normal -0.941544 0 0.336891
    outer loop
      vertex 50.78 0 7.65914
      vertex 50.8527 28.85 7.86217
      vertex 50.78 28.85 7.65914
    endloop
  endfacet
  facet normal -0.941544 0 0.336891
    outer loop
      vertex 50.8527 28.85 7.86217
      vertex 50.78 0 7.65914
      vertex 50.8527 0 7.86217
    endloop
  endfacet
  facet normal -0.989177 0 0.146729
    outer loop
      vertex 50.905 0 8.07133
      vertex 50.9367 28.85 8.28463
      vertex 50.905 28.85 8.07133
    endloop
  endfacet
  facet normal -0.989177 0 0.146729
    outer loop
      vertex 50.9367 28.85 8.28463
      vertex 50.905 0 8.07133
      vertex 50.9367 0 8.28463
    endloop
  endfacet
  facet normal -0.998795 0 0.0490749
    outer loop
      vertex 50.9367 0 8.28463
      vertex 50.9473 28.85 8.5
      vertex 50.9367 28.85 8.28463
    endloop
  endfacet
  facet normal -0.998795 0 0.0490749
    outer loop
      vertex 50.9473 28.85 8.5
      vertex 50.9367 0 8.28463
      vertex 50.9473 0 8.5
    endloop
  endfacet
  facet normal -0.803211 0 0.595695
    outer loop
      vertex 50.4485 0 7.10607
      vertex 50.577 28.85 7.27926
      vertex 50.4485 28.85 7.10607
    endloop
  endfacet
  facet normal -0.803211 0 0.595695
    outer loop
      vertex 50.577 28.85 7.27926
      vertex 50.4485 0 7.10607
      vertex 50.577 0 7.27926
    endloop
  endfacet
  facet normal -0.903989 0 0.427555
    outer loop
      vertex 50.6878 0 7.46422
      vertex 50.78 28.85 7.65914
      vertex 50.6878 28.85 7.46422
    endloop
  endfacet
  facet normal -0.903989 0 0.427555
    outer loop
      vertex 50.78 28.85 7.65914
      vertex 50.6878 0 7.46422
      vertex 50.78 0 7.65914
    endloop
  endfacet
  facet normal 0.97003 -0 0.242985
    outer loop
      vertex 46.595 0 8.07133
      vertex 46.6473 28.85 7.86217
      vertex 46.595 28.85 8.07133
    endloop
  endfacet
  facet normal 0.97003 0 0.242985
    outer loop
      vertex 46.6473 28.85 7.86217
      vertex 46.595 0 8.07133
      vertex 46.6473 0 7.86217
    endloop
  endfacet
  facet normal -0.336888 0 0.941545
    outer loop
      vertex 49.3878 28.85 6.39735
      vertex 49.5909 0 6.46999
      vertex 49.5909 28.85 6.46999
    endloop
  endfacet
  facet normal -0.336888 0 0.941545
    outer loop
      vertex 49.5909 0 6.46999
      vertex 49.3878 28.85 6.39735
      vertex 49.3878 0 6.39735
    endloop
  endfacet
  facet normal -0.242981 0 0.970031
    outer loop
      vertex 49.1787 28.85 6.34495
      vertex 49.3878 0 6.39735
      vertex 49.3878 28.85 6.39735
    endloop
  endfacet
  facet normal -0.242981 0 0.970031
    outer loop
      vertex 49.3878 0 6.39735
      vertex 49.1787 28.85 6.34495
      vertex 49.1787 0 6.34495
    endloop
  endfacet
  facet normal -0.857722 0 0.514113
    outer loop
      vertex 50.577 0 7.27926
      vertex 50.6878 28.85 7.46422
      vertex 50.577 28.85 7.27926
    endloop
  endfacet
  facet normal -0.857722 0 0.514113
    outer loop
      vertex 50.6878 28.85 7.46422
      vertex 50.577 0 7.27926
      vertex 50.6878 0 7.46422
    endloop
  endfacet
  facet normal -0.67155 0 0.740959
    outer loop
      vertex 50.1439 28.85 6.80149
      vertex 50.3037 0 6.9463
      vertex 50.3037 28.85 6.9463
    endloop
  endfacet
  facet normal -0.67155 0 0.740959
    outer loop
      vertex 50.3037 0 6.9463
      vertex 50.1439 28.85 6.80149
      vertex 50.1439 0 6.80149
    endloop
  endfacet
  facet normal -0.5957 0 0.803207
    outer loop
      vertex 49.9707 28.85 6.67304
      vertex 50.1439 0 6.80149
      vertex 50.1439 28.85 6.80149
    endloop
  endfacet
  facet normal -0.5957 0 0.803207
    outer loop
      vertex 50.1439 0 6.80149
      vertex 49.9707 28.85 6.67304
      vertex 49.9707 0 6.67304
    endloop
  endfacet
  facet normal 0.0490658 0 0.998796
    outer loop
      vertex 48.5346 28.85 6.31331
      vertex 48.75 0 6.30273
      vertex 48.75 28.85 6.30273
    endloop
  endfacet
  facet normal 0.0490658 0 0.998796
    outer loop
      vertex 48.75 0 6.30273
      vertex 48.5346 28.85 6.31331
      vertex 48.5346 0 6.31331
    endloop
  endfacet
  facet normal 0.146729 0 0.989177
    outer loop
      vertex 48.3213 28.85 6.34495
      vertex 48.5346 0 6.31331
      vertex 48.5346 28.85 6.31331
    endloop
  endfacet
  facet normal 0.146729 0 0.989177
    outer loop
      vertex 48.5346 0 6.31331
      vertex 48.3213 28.85 6.34495
      vertex 48.3213 0 6.34495
    endloop
  endfacet
  facet normal 0.85773 -0 0.5141
    outer loop
      vertex 46.8122 0 7.46422
      vertex 46.923 28.85 7.27926
      vertex 46.8122 28.85 7.46422
    endloop
  endfacet
  facet normal 0.85773 0 0.5141
    outer loop
      vertex 46.923 28.85 7.27926
      vertex 46.8122 0 7.46422
      vertex 46.923 0 7.27926
    endloop
  endfacet
  facet normal 0.740956 -0 0.671554
    outer loop
      vertex 47.0515 0 7.10607
      vertex 47.1963 28.85 6.9463
      vertex 47.0515 28.85 7.10607
    endloop
  endfacet
  facet normal 0.740956 0 0.671554
    outer loop
      vertex 47.1963 28.85 6.9463
      vertex 47.0515 0 7.10607
      vertex 47.1963 0 6.9463
    endloop
  endfacet
  facet normal 0.803203 -0 0.595706
    outer loop
      vertex 46.923 0 7.27926
      vertex 47.0515 28.85 7.10607
      vertex 46.923 28.85 7.27926
    endloop
  endfacet
  facet normal 0.803203 0 0.595706
    outer loop
      vertex 47.0515 28.85 7.10607
      vertex 46.923 0 7.27926
      vertex 47.0515 0 7.10607
    endloop
  endfacet
  facet normal 0.941544 -0 0.336891
    outer loop
      vertex 46.6473 0 7.86217
      vertex 46.72 28.85 7.65914
      vertex 46.6473 28.85 7.86217
    endloop
  endfacet
  facet normal 0.941544 0 0.336891
    outer loop
      vertex 46.72 28.85 7.65914
      vertex 46.6473 0 7.86217
      vertex 46.72 0 7.65914
    endloop
  endfacet
  facet normal 0.989177 -0 0.146729
    outer loop
      vertex 46.5633 0 8.28463
      vertex 46.595 28.85 8.07133
      vertex 46.5633 28.85 8.28463
    endloop
  endfacet
  facet normal 0.989177 0 0.146729
    outer loop
      vertex 46.595 28.85 8.07133
      vertex 46.5633 0 8.28463
      vertex 46.595 0 8.07133
    endloop
  endfacet
  facet normal 0.998796 -0 0.0490572
    outer loop
      vertex 46.5527 0 8.5
      vertex 46.5633 28.85 8.28463
      vertex 46.5527 28.85 8.5
    endloop
  endfacet
  facet normal 0.998796 0 0.0490572
    outer loop
      vertex 46.5633 28.85 8.28463
      vertex 46.5527 0 8.5
      vertex 46.5633 0 8.28463
    endloop
  endfacet
  facet normal 0.671559 0 0.740951
    outer loop
      vertex 47.1963 28.85 6.9463
      vertex 47.3561 0 6.80149
      vertex 47.3561 28.85 6.80149
    endloop
  endfacet
  facet normal 0.671559 0 0.740951
    outer loop
      vertex 47.3561 0 6.80149
      vertex 47.1963 28.85 6.9463
      vertex 47.1963 0 6.9463
    endloop
  endfacet
  facet normal 0.5957 0 0.803207
    outer loop
      vertex 47.3561 28.85 6.80149
      vertex 47.5293 0 6.67304
      vertex 47.5293 28.85 6.67304
    endloop
  endfacet
  facet normal 0.5957 0 0.803207
    outer loop
      vertex 47.5293 0 6.67304
      vertex 47.3561 28.85 6.80149
      vertex 47.3561 0 6.80149
    endloop
  endfacet
  facet normal 0.242981 0 0.970031
    outer loop
      vertex 48.1122 28.85 6.39735
      vertex 48.3213 0 6.34495
      vertex 48.3213 28.85 6.34495
    endloop
  endfacet
  facet normal 0.242981 0 0.970031
    outer loop
      vertex 48.3213 0 6.34495
      vertex 48.1122 28.85 6.39735
      vertex 48.1122 0 6.39735
    endloop
  endfacet
  facet normal 0.427555 0 0.903989
    outer loop
      vertex 47.7142 28.85 6.56218
      vertex 47.9091 0 6.46999
      vertex 47.9091 28.85 6.46999
    endloop
  endfacet
  facet normal 0.427555 0 0.903989
    outer loop
      vertex 47.9091 0 6.46999
      vertex 47.7142 28.85 6.56218
      vertex 47.7142 0 6.56218
    endloop
  endfacet
  facet normal 0.336888 0 0.941545
    outer loop
      vertex 47.9091 28.85 6.46999
      vertex 48.1122 0 6.39735
      vertex 48.1122 28.85 6.39735
    endloop
  endfacet
  facet normal 0.336888 0 0.941545
    outer loop
      vertex 48.1122 0 6.39735
      vertex 47.9091 28.85 6.46999
      vertex 47.9091 0 6.46999
    endloop
  endfacet
  facet normal 0.514104 0 0.857728
    outer loop
      vertex 47.5293 28.85 6.67304
      vertex 47.7142 0 6.56218
      vertex 47.7142 28.85 6.56218
    endloop
  endfacet
  facet normal 0.514104 0 0.857728
    outer loop
      vertex 47.7142 0 6.56218
      vertex 47.5293 28.85 6.67304
      vertex 47.5293 0 6.67304
    endloop
  endfacet
  facet normal -1 0 0
    outer loop
      vertex 34 5.55 17
      vertex 34 23.3 19
      vertex 34 23.3 17
    endloop
  endfacet
  facet normal -1 -0 0
    outer loop
      vertex 34 23.3 19
      vertex 34 5.55 17
      vertex 34 5.55 19
    endloop
  endfacet
  facet normal 0 -1 0
    outer loop
      vertex 0 23.3 27
      vertex 32 23.3 19
      vertex 32 23.3 27
    endloop
  endfacet
  facet normal 0 -1 0
    outer loop
      vertex 0 23.3 17
      vertex 32 23.3 19
      vertex 0 23.3 27
    endloop
  endfacet
  facet normal 0 -1 0
    outer loop
      vertex 34 23.3 17
      vertex 32 23.3 19
      vertex 0 23.3 17
    endloop
  endfacet
  facet normal 0 -1 0
    outer loop
      vertex 32 23.3 19
      vertex 34 23.3 17
      vertex 34 23.3 19
    endloop
  endfacet
  facet normal -0 0 1
    outer loop
      vertex 0 23.3 17
      vertex 34 5.55 17
      vertex 34 23.3 17
    endloop
  endfacet
  facet normal 0 0 1
    outer loop
      vertex 34 5.55 17
      vertex 0 23.3 17
      vertex 0 5.55 17
    endloop
  endfacet
  facet normal 0 1 0
    outer loop
      vertex 34 5.55 19
      vertex 34 5.55 17
      vertex 32 5.55 19
    endloop
  endfacet
  facet normal 0 1 -0
    outer loop
      vertex 32 5.55 19
      vertex 0 5.55 27
      vertex 32 5.55 27
    endloop
  endfacet
  facet normal 0 1 0
    outer loop
      vertex 0 5.55 17
      vertex 32 5.55 19
      vertex 34 5.55 17
    endloop
  endfacet
  facet normal 0 1 0
    outer loop
      vertex 32 5.55 19
      vertex 0 5.55 17
      vertex 0 5.55 27
    endloop
  endfacet
  facet normal 1 -0 0
    outer loop
      vertex 32 0 27
      vertex 32 5.55 19
      vertex 32 5.55 27
    endloop
  endfacet
  facet normal 1 0 0
    outer loop
      vertex 32 5.55 19
      vertex 32 0 27
      vertex 32 0 19
    endloop
  endfacet
  facet normal 1 -0 0
    outer loop
      vertex 32 23.3 27
      vertex 32 28.85 19
      vertex 32 28.85 27
    endloop
  endfacet
  facet normal 1 0 0
    outer loop
      vertex 32 28.85 19
      vertex 32 23.3 27
      vertex 32 23.3 19
    endloop
  endfacet
  facet normal 0 0 1
    outer loop
      vertex 65 28.85 19
      vertex 34 23.3 19
      vertex 65 0 19
    endloop
  endfacet
  facet normal -0 0 1
    outer loop
      vertex 32 28.85 19
      vertex 34 23.3 19
      vertex 65 28.85 19
    endloop
  endfacet
  facet normal 0 0 1
    outer loop
      vertex 34 23.3 19
      vertex 32 28.85 19
      vertex 32 23.3 19
    endloop
  endfacet
  facet normal -0 0 1
    outer loop
      vertex 34 5.55 19
      vertex 65 0 19
      vertex 34 23.3 19
    endloop
  endfacet
  facet normal 0 0 1
    outer loop
      vertex 32 0 19
      vertex 34 5.55 19
      vertex 32 5.55 19
    endloop
  endfacet
  facet normal 0 0 1
    outer loop
      vertex 34 5.55 19
      vertex 32 0 19
      vertex 65 0 19
    endloop
  endfacet
  facet normal -1 0 0
    outer loop
      vertex 0 28.85 0
      vertex 0 23.3 17
      vertex 0 28.85 27
    endloop
  endfacet
  facet normal -1 0 0
    outer loop
      vertex 0 28.85 0
      vertex 0 5.55 17
      vertex 0 23.3 17
    endloop
  endfacet
  facet normal -1 0 0
    outer loop
      vertex 0 0 0
      vertex 0 5.55 17
      vertex 0 28.85 0
    endloop
  endfacet
  facet normal -1 0 0
    outer loop
      vertex 0 0 27
      vertex 0 5.55 17
      vertex 0 0 0
    endloop
  endfacet
  facet normal -1 0 0
    outer loop
      vertex 0 5.55 17
      vertex 0 0 27
      vertex 0 5.55 27
    endloop
  endfacet
  facet normal -1 -0 0
    outer loop
      vertex 0 28.85 27
      vertex 0 23.3 17
      vertex 0 23.3 27
    endloop
  endfacet
  facet normal -0 0 1
    outer loop
      vertex 0 5.55 27
      vertex 32 0 27
      vertex 32 5.55 27
    endloop
  endfacet
  facet normal 0 0 1
    outer loop
      vertex 32 0 27
      vertex 0 5.55 27
      vertex 0 0 27
    endloop
  endfacet
  facet normal -0 0 1
    outer loop
      vertex 0 28.85 27
      vertex 32 23.3 27
      vertex 32 28.85 27
    endloop
  endfacet
  facet normal 0 0 1
    outer loop
      vertex 32 23.3 27
      vertex 0 28.85 27
      vertex 0 23.3 27
    endloop
  endfacet
  facet normal 1 -0 0
    outer loop
      vertex 65 0 19
      vertex 65 28.85 0
      vertex 65 28.85 19
    endloop
  endfacet
  facet normal 1 0 0
    outer loop
      vertex 65 28.85 0
      vertex 65 0 19
      vertex 65 0 0
    endloop
  endfacet
  facet normal 0 1 -0
    outer loop
      vertex 48.3213 28.85 10.655
      vertex 32 28.85 19
      vertex 48.5346 28.85 10.6867
    endloop
  endfacet
  facet normal 0 1 0
    outer loop
      vertex 32 28.85 19
      vertex 16.4654 28.85 10.6867
      vertex 16.25 28.85 10.6973
    endloop
  endfacet
  facet normal 0 1 -0
    outer loop
      vertex 48.1122 28.85 10.6027
      vertex 32 28.85 19
      vertex 48.3213 28.85 10.655
    endloop
  endfacet
  facet normal 0 1 0
    outer loop
      vertex 32 28.85 19
      vertex 16.6787 28.85 10.655
      vertex 16.4654 28.85 10.6867
    endloop
  endfacet
  facet normal 0 1 -0
    outer loop
      vertex 47.9091 28.85 10.53
      vertex 32 28.85 19
      vertex 48.1122 28.85 10.6027
    endloop
  endfacet
  facet normal 0 1 0
    outer loop
      vertex 32 28.85 19
      vertex 16.8878 28.85 10.6027
      vertex 16.6787 28.85 10.655
    endloop
  endfacet
  facet normal 0 1 -0
    outer loop
      vertex 47.7142 28.85 10.4378
      vertex 32 28.85 19
      vertex 47.9091 28.85 10.53
    endloop
  endfacet
  facet normal 0 1 0
    outer loop
      vertex 32 28.85 19
      vertex 17.0909 28.85 10.53
      vertex 16.8878 28.85 10.6027
    endloop
  endfacet
  facet normal 0 1 -0
    outer loop
      vertex 47.5293 28.85 10.327
      vertex 32 28.85 19
      vertex 47.7142 28.85 10.4378
    endloop
  endfacet
  facet normal 0 1 0
    outer loop
      vertex 32 28.85 19
      vertex 17.2858 28.85 10.4378
      vertex 17.0909 28.85 10.53
    endloop
  endfacet
  facet normal 0 1 -0
    outer loop
      vertex 47.3561 28.85 10.1985
      vertex 32 28.85 19
      vertex 47.5293 28.85 10.327
    endloop
  endfacet
  facet normal 0 1 0
    outer loop
      vertex 32 28.85 19
      vertex 17.4707 28.85 10.327
      vertex 17.2858 28.85 10.4378
    endloop
  endfacet
  facet normal 0 1 -0
    outer loop
      vertex 47.1963 28.85 10.0537
      vertex 32 28.85 19
      vertex 47.3561 28.85 10.1985
    endloop
  endfacet
  facet normal 0 1 0
    outer loop
      vertex 32 28.85 19
      vertex 17.6439 28.85 10.1985
      vertex 17.4707 28.85 10.327
    endloop
  endfacet
  facet normal 0 1 -0
    outer loop
      vertex 47.0515 28.85 9.89393
      vertex 32 28.85 19
      vertex 47.1963 28.85 10.0537
    endloop
  endfacet
  facet normal 0 1 0
    outer loop
      vertex 32 28.85 19
      vertex 17.8037 28.85 10.0537
      vertex 17.6439 28.85 10.1985
    endloop
  endfacet
  facet normal 0 1 -0
    outer loop
      vertex 46.923 28.85 9.72074
      vertex 32 28.85 19
      vertex 47.0515 28.85 9.89393
    endloop
  endfacet
  facet normal 0 1 0
    outer loop
      vertex 32 28.85 19
      vertex 17.9485 28.85 9.89393
      vertex 17.8037 28.85 10.0537
    endloop
  endfacet
  facet normal 0 1 -0
    outer loop
      vertex 46.8122 28.85 9.53578
      vertex 32 28.85 19
      vertex 46.923 28.85 9.72074
    endloop
  endfacet
  facet normal 0 1 0
    outer loop
      vertex 32 28.85 19
      vertex 18.077 28.85 9.72074
      vertex 17.9485 28.85 9.89393
    endloop
  endfacet
  facet normal 0 1 -0
    outer loop
      vertex 46.72 28.85 9.34086
      vertex 32 28.85 19
      vertex 46.8122 28.85 9.53578
    endloop
  endfacet
  facet normal 0 1 0
    outer loop
      vertex 32 28.85 19
      vertex 18.1878 28.85 9.53578
      vertex 18.077 28.85 9.72074
    endloop
  endfacet
  facet normal 0 1 -0
    outer loop
      vertex 46.6473 28.85 9.13783
      vertex 32 28.85 19
      vertex 46.72 28.85 9.34086
    endloop
  endfacet
  facet normal 0 1 0
    outer loop
      vertex 32 28.85 19
      vertex 18.28 28.85 9.34086
      vertex 18.1878 28.85 9.53578
    endloop
  endfacet
  facet normal 0 1 -0
    outer loop
      vertex 46.595 28.85 8.92867
      vertex 32 28.85 19
      vertex 46.6473 28.85 9.13783
    endloop
  endfacet
  facet normal 0 1 0
    outer loop
      vertex 32 28.85 19
      vertex 18.3527 28.85 9.13783
      vertex 18.28 28.85 9.34086
    endloop
  endfacet
  facet normal 0 1 -0
    outer loop
      vertex 46.5633 28.85 8.71537
      vertex 32 28.85 19
      vertex 46.595 28.85 8.92867
    endloop
  endfacet
  facet normal 0 1 0
    outer loop
      vertex 32 28.85 19
      vertex 18.405 28.85 8.92867
      vertex 18.3527 28.85 9.13783
    endloop
  endfacet
  facet normal 0 1 -0
    outer loop
      vertex 46.5527 28.85 8.5
      vertex 32 28.85 19
      vertex 46.5633 28.85 8.71537
    endloop
  endfacet
  facet normal 0 1 0
    outer loop
      vertex 32 28.85 19
      vertex 18.4367 28.85 8.71537
      vertex 18.405 28.85 8.92867
    endloop
  endfacet
  facet normal 0 1 0
    outer loop
      vertex 46.5633 28.85 8.28463
      vertex 32 28.85 19
      vertex 46.5527 28.85 8.5
    endloop
  endfacet
  facet normal 0 1 0
    outer loop
      vertex 32 28.85 19
      vertex 18.4473 28.85 8.5
      vertex 18.4367 28.85 8.71537
    endloop
  endfacet
  facet normal 0 1 0
    outer loop
      vertex 46.595 28.85 8.07133
      vertex 32 28.85 19
      vertex 46.5633 28.85 8.28463
    endloop
  endfacet
  facet normal 0 1 0
    outer loop
      vertex 32 28.85 19
      vertex 18.4367 28.85 8.28463
      vertex 18.4473 28.85 8.5
    endloop
  endfacet
  facet normal 0 1 0
    outer loop
      vertex 18.405 28.85 8.07133
      vertex 32 28.85 19
      vertex 46.595 28.85 8.07133
    endloop
  endfacet
  facet normal 0 1 0
    outer loop
      vertex 32 28.85 19
      vertex 18.405 28.85 8.07133
      vertex 18.4367 28.85 8.28463
    endloop
  endfacet
  facet normal 0 1 0
    outer loop
      vertex 46.6473 28.85 7.86217
      vertex 18.405 28.85 8.07133
      vertex 46.595 28.85 8.07133
    endloop
  endfacet
  facet normal 0 1 0
    outer loop
      vertex 46.6473 28.85 7.86217
      vertex 18.3527 28.85 7.86217
      vertex 18.405 28.85 8.07133
    endloop
  endfacet
  facet normal 0 1 0
    outer loop
      vertex 46.72 28.85 7.65914
      vertex 18.3527 28.85 7.86217
      vertex 46.6473 28.85 7.86217
    endloop
  endfacet
  facet normal 0 1 0
    outer loop
      vertex 46.72 28.85 7.65914
      vertex 18.28 28.85 7.65914
      vertex 18.3527 28.85 7.86217
    endloop
  endfacet
  facet normal 0 1 0
    outer loop
      vertex 46.8122 28.85 7.46422
      vertex 18.28 28.85 7.65914
      vertex 46.72 28.85 7.65914
    endloop
  endfacet
  facet normal 0 1 0
    outer loop
      vertex 46.8122 28.85 7.46422
      vertex 18.1878 28.85 7.46422
      vertex 18.28 28.85 7.65914
    endloop
  endfacet
  facet normal 0 1 0
    outer loop
      vertex 46.923 28.85 7.27926
      vertex 18.1878 28.85 7.46422
      vertex 46.8122 28.85 7.46422
    endloop
  endfacet
  facet normal 0 1 0
    outer loop
      vertex 46.923 28.85 7.27926
      vertex 18.077 28.85 7.27926
      vertex 18.1878 28.85 7.46422
    endloop
  endfacet
  facet normal 0 1 0
    outer loop
      vertex 47.0515 28.85 7.10607
      vertex 18.077 28.85 7.27926
      vertex 46.923 28.85 7.27926
    endloop
  endfacet
  facet normal 0 1 0
    outer loop
      vertex 47.0515 28.85 7.10607
      vertex 17.9485 28.85 7.10607
      vertex 18.077 28.85 7.27926
    endloop
  endfacet
  facet normal 0 1 0
    outer loop
      vertex 47.1963 28.85 6.9463
      vertex 17.9485 28.85 7.10607
      vertex 47.0515 28.85 7.10607
    endloop
  endfacet
  facet normal 0 1 0
    outer loop
      vertex 47.1963 28.85 6.9463
      vertex 17.8037 28.85 6.9463
      vertex 17.9485 28.85 7.10607
    endloop
  endfacet
  facet normal 0 1 0
    outer loop
      vertex 47.3561 28.85 6.80149
      vertex 17.8037 28.85 6.9463
      vertex 47.1963 28.85 6.9463
    endloop
  endfacet
  facet normal 0 1 0
    outer loop
      vertex 47.3561 28.85 6.80149
      vertex 17.6439 28.85 6.80149
      vertex 17.8037 28.85 6.9463
    endloop
  endfacet
  facet normal 0 1 0
    outer loop
      vertex 47.5293 28.85 6.67304
      vertex 17.6439 28.85 6.80149
      vertex 47.3561 28.85 6.80149
    endloop
  endfacet
  facet normal 0 1 0
    outer loop
      vertex 47.5293 28.85 6.67304
      vertex 17.4707 28.85 6.67304
      vertex 17.6439 28.85 6.80149
    endloop
  endfacet
  facet normal 0 1 0
    outer loop
      vertex 47.7142 28.85 6.56218
      vertex 17.4707 28.85 6.67304
      vertex 47.5293 28.85 6.67304
    endloop
  endfacet
  facet normal 0 1 0
    outer loop
      vertex 47.7142 28.85 6.56218
      vertex 17.2858 28.85 6.56218
      vertex 17.4707 28.85 6.67304
    endloop
  endfacet
  facet normal 0 1 0
    outer loop
      vertex 47.9091 28.85 6.46999
      vertex 17.2858 28.85 6.56218
      vertex 47.7142 28.85 6.56218
    endloop
  endfacet
  facet normal 0 1 0
    outer loop
      vertex 47.9091 28.85 6.46999
      vertex 17.0909 28.85 6.46999
      vertex 17.2858 28.85 6.56218
    endloop
  endfacet
  facet normal 0 1 0
    outer loop
      vertex 48.1122 28.85 6.39735
      vertex 17.0909 28.85 6.46999
      vertex 47.9091 28.85 6.46999
    endloop
  endfacet
  facet normal 0 1 0
    outer loop
      vertex 48.1122 28.85 6.39735
      vertex 16.8878 28.85 6.39735
      vertex 17.0909 28.85 6.46999
    endloop
  endfacet
  facet normal 0 1 0
    outer loop
      vertex 48.3213 28.85 6.34495
      vertex 16.8878 28.85 6.39735
      vertex 48.1122 28.85 6.39735
    endloop
  endfacet
  facet normal 0 1 0
    outer loop
      vertex 48.3213 28.85 6.34495
      vertex 16.6787 28.85 6.34495
      vertex 16.8878 28.85 6.39735
    endloop
  endfacet
  facet normal 0 1 0
    outer loop
      vertex 65 28.85 0
      vertex 48.3213 28.85 6.34495
      vertex 48.5346 28.85 6.31331
    endloop
  endfacet
  facet normal 0 1 0
    outer loop
      vertex 48.3213 28.85 6.34495
      vertex 65 28.85 0
      vertex 16.6787 28.85 6.34495
    endloop
  endfacet
  facet normal 0 1 0
    outer loop
      vertex 65 28.85 0
      vertex 48.5346 28.85 6.31331
      vertex 48.75 28.85 6.30273
    endloop
  endfacet
  facet normal 0 1 0
    outer loop
      vertex 0 28.85 0
      vertex 16.6787 28.85 6.34495
      vertex 65 28.85 0
    endloop
  endfacet
  facet normal 0 1 0
    outer loop
      vertex 65 28.85 19
      vertex 48.75 28.85 10.6973
      vertex 32 28.85 19
    endloop
  endfacet
  facet normal 0 1 0
    outer loop
      vertex 65 28.85 19
      vertex 48.9654 28.85 10.6867
      vertex 48.75 28.85 10.6973
    endloop
  endfacet
  facet normal 0 1 0
    outer loop
      vertex 65 28.85 19
      vertex 49.1787 28.85 10.655
      vertex 48.9654 28.85 10.6867
    endloop
  endfacet
  facet normal 0 1 0
    outer loop
      vertex 65 28.85 19
      vertex 49.3878 28.85 10.6027
      vertex 49.1787 28.85 10.655
    endloop
  endfacet
  facet normal 0 1 0
    outer loop
      vertex 65 28.85 19
      vertex 49.5909 28.85 10.53
      vertex 49.3878 28.85 10.6027
    endloop
  endfacet
  facet normal 0 1 0
    outer loop
      vertex 65 28.85 19
      vertex 49.7858 28.85 10.4378
      vertex 49.5909 28.85 10.53
    endloop
  endfacet
  facet normal 0 1 0
    outer loop
      vertex 65 28.85 19
      vertex 49.9707 28.85 10.327
      vertex 49.7858 28.85 10.4378
    endloop
  endfacet
  facet normal 0 1 0
    outer loop
      vertex 65 28.85 19
      vertex 50.1439 28.85 10.1985
      vertex 49.9707 28.85 10.327
    endloop
  endfacet
  facet normal 0 1 0
    outer loop
      vertex 65 28.85 19
      vertex 50.3037 28.85 10.0537
      vertex 50.1439 28.85 10.1985
    endloop
  endfacet
  facet normal 0 1 0
    outer loop
      vertex 65 28.85 19
      vertex 50.4485 28.85 9.89393
      vertex 50.3037 28.85 10.0537
    endloop
  endfacet
  facet normal 0 1 0
    outer loop
      vertex 65 28.85 19
      vertex 50.577 28.85 9.72074
      vertex 50.4485 28.85 9.89393
    endloop
  endfacet
  facet normal 0 1 0
    outer loop
      vertex 65 28.85 19
      vertex 50.6878 28.85 9.53578
      vertex 50.577 28.85 9.72074
    endloop
  endfacet
  facet normal 0 1 0
    outer loop
      vertex 65 28.85 19
      vertex 50.78 28.85 9.34086
      vertex 50.6878 28.85 9.53578
    endloop
  endfacet
  facet normal 0 1 0
    outer loop
      vertex 65 28.85 19
      vertex 50.8527 28.85 9.13783
      vertex 50.78 28.85 9.34086
    endloop
  endfacet
  facet normal 0 1 0
    outer loop
      vertex 65 28.85 19
      vertex 50.905 28.85 8.92867
      vertex 50.8527 28.85 9.13783
    endloop
  endfacet
  facet normal 0 1 0
    outer loop
      vertex 65 28.85 19
      vertex 50.9367 28.85 8.71537
      vertex 50.905 28.85 8.92867
    endloop
  endfacet
  facet normal 0 1 -0
    outer loop
      vertex 65 28.85 0
      vertex 50.9367 28.85 8.71537
      vertex 65 28.85 19
    endloop
  endfacet
  facet normal 0 1 0
    outer loop
      vertex 50.9367 28.85 8.71537
      vertex 65 28.85 0
      vertex 50.9473 28.85 8.5
    endloop
  endfacet
  facet normal 0 1 0
    outer loop
      vertex 50.9473 28.85 8.5
      vertex 65 28.85 0
      vertex 50.9367 28.85 8.28463
    endloop
  endfacet
  facet normal 0 1 0
    outer loop
      vertex 50.9367 28.85 8.28463
      vertex 65 28.85 0
      vertex 50.905 28.85 8.07133
    endloop
  endfacet
  facet normal 0 1 0
    outer loop
      vertex 50.905 28.85 8.07133
      vertex 65 28.85 0
      vertex 50.8527 28.85 7.86217
    endloop
  endfacet
  facet normal 0 1 0
    outer loop
      vertex 50.8527 28.85 7.86217
      vertex 65 28.85 0
      vertex 50.78 28.85 7.65914
    endloop
  endfacet
  facet normal 0 1 0
    outer loop
      vertex 50.78 28.85 7.65914
      vertex 65 28.85 0
      vertex 50.6878 28.85 7.46422
    endloop
  endfacet
  facet normal 0 1 0
    outer loop
      vertex 50.6878 28.85 7.46422
      vertex 65 28.85 0
      vertex 50.577 28.85 7.27926
    endloop
  endfacet
  facet normal 0 1 0
    outer loop
      vertex 50.577 28.85 7.27926
      vertex 65 28.85 0
      vertex 50.4485 28.85 7.10607
    endloop
  endfacet
  facet normal 0 1 0
    outer loop
      vertex 50.4485 28.85 7.10607
      vertex 65 28.85 0
      vertex 50.3037 28.85 6.9463
    endloop
  endfacet
  facet normal 0 1 0
    outer loop
      vertex 16.6787 28.85 6.34495
      vertex 0 28.85 0
      vertex 16.4654 28.85 6.31331
    endloop
  endfacet
  facet normal 0 1 0
    outer loop
      vertex 48.9654 28.85 6.31331
      vertex 65 28.85 0
      vertex 48.75 28.85 6.30273
    endloop
  endfacet
  facet normal 0 1 0
    outer loop
      vertex 49.1787 28.85 6.34495
      vertex 65 28.85 0
      vertex 48.9654 28.85 6.31331
    endloop
  endfacet
  facet normal 0 1 0
    outer loop
      vertex 49.3878 28.85 6.39735
      vertex 65 28.85 0
      vertex 49.1787 28.85 6.34495
    endloop
  endfacet
  facet normal 0 1 0
    outer loop
      vertex 49.5909 28.85 6.46999
      vertex 65 28.85 0
      vertex 49.3878 28.85 6.39735
    endloop
  endfacet
  facet normal 0 1 0
    outer loop
      vertex 49.7858 28.85 6.56218
      vertex 65 28.85 0
      vertex 49.5909 28.85 6.46999
    endloop
  endfacet
  facet normal 0 1 0
    outer loop
      vertex 49.9707 28.85 6.67304
      vertex 65 28.85 0
      vertex 49.7858 28.85 6.56218
    endloop
  endfacet
  facet normal 0 1 0
    outer loop
      vertex 50.1439 28.85 6.80149
      vertex 65 28.85 0
      vertex 49.9707 28.85 6.67304
    endloop
  endfacet
  facet normal 0 1 0
    outer loop
      vertex 50.3037 28.85 6.9463
      vertex 65 28.85 0
      vertex 50.1439 28.85 6.80149
    endloop
  endfacet
  facet normal 0 1 0
    outer loop
      vertex 16.25 28.85 10.6973
      vertex 32 28.85 27
      vertex 32 28.85 19
    endloop
  endfacet
  facet normal 0 1 -0
    outer loop
      vertex 48.5346 28.85 10.6867
      vertex 32 28.85 19
      vertex 48.75 28.85 10.6973
    endloop
  endfacet
  facet normal 0 1 0
    outer loop
      vertex 32 28.85 27
      vertex 16.25 28.85 10.6973
      vertex 0 28.85 27
    endloop
  endfacet
  facet normal 0 1 -0
    outer loop
      vertex 16.0346 28.85 10.6867
      vertex 0 28.85 27
      vertex 16.25 28.85 10.6973
    endloop
  endfacet
  facet normal 0 1 -0
    outer loop
      vertex 15.8213 28.85 10.655
      vertex 0 28.85 27
      vertex 16.0346 28.85 10.6867
    endloop
  endfacet
  facet normal 0 1 -0
    outer loop
      vertex 15.6122 28.85 10.6027
      vertex 0 28.85 27
      vertex 15.8213 28.85 10.655
    endloop
  endfacet
  facet normal 0 1 -0
    outer loop
      vertex 15.4091 28.85 10.53
      vertex 0 28.85 27
      vertex 15.6122 28.85 10.6027
    endloop
  endfacet
  facet normal 0 1 -0
    outer loop
      vertex 15.2142 28.85 10.4378
      vertex 0 28.85 27
      vertex 15.4091 28.85 10.53
    endloop
  endfacet
  facet normal 0 1 -0
    outer loop
      vertex 15.0293 28.85 10.327
      vertex 0 28.85 27
      vertex 15.2142 28.85 10.4378
    endloop
  endfacet
  facet normal 0 1 -0
    outer loop
      vertex 14.8561 28.85 10.1985
      vertex 0 28.85 27
      vertex 15.0293 28.85 10.327
    endloop
  endfacet
  facet normal 0 1 -0
    outer loop
      vertex 14.6963 28.85 10.0537
      vertex 0 28.85 27
      vertex 14.8561 28.85 10.1985
    endloop
  endfacet
  facet normal 0 1 -0
    outer loop
      vertex 14.5515 28.85 9.89393
      vertex 0 28.85 27
      vertex 14.6963 28.85 10.0537
    endloop
  endfacet
  facet normal 0 1 -0
    outer loop
      vertex 14.423 28.85 9.72074
      vertex 0 28.85 27
      vertex 14.5515 28.85 9.89393
    endloop
  endfacet
  facet normal 0 1 -0
    outer loop
      vertex 14.3122 28.85 9.53578
      vertex 0 28.85 27
      vertex 14.423 28.85 9.72074
    endloop
  endfacet
  facet normal 0 1 -0
    outer loop
      vertex 14.22 28.85 9.34086
      vertex 0 28.85 27
      vertex 14.3122 28.85 9.53578
    endloop
  endfacet
  facet normal 0 1 -0
    outer loop
      vertex 14.1473 28.85 9.13783
      vertex 0 28.85 27
      vertex 14.22 28.85 9.34086
    endloop
  endfacet
  facet normal 0 1 0
    outer loop
      vertex 0 28.85 0
      vertex 14.1473 28.85 9.13783
      vertex 14.095 28.85 8.92867
    endloop
  endfacet
  facet normal 0 1 0
    outer loop
      vertex 0 28.85 0
      vertex 14.095 28.85 8.92867
      vertex 14.0633 28.85 8.71537
    endloop
  endfacet
  facet normal 0 1 0
    outer loop
      vertex 0 28.85 0
      vertex 14.0633 28.85 8.71537
      vertex 14.0527 28.85 8.5
    endloop
  endfacet
  facet normal 0 1 0
    outer loop
      vertex 0 28.85 0
      vertex 14.0527 28.85 8.5
      vertex 14.0633 28.85 8.28463
    endloop
  endfacet
  facet normal 0 1 0
    outer loop
      vertex 0 28.85 0
      vertex 14.0633 28.85 8.28463
      vertex 14.095 28.85 8.07133
    endloop
  endfacet
  facet normal 0 1 0
    outer loop
      vertex 0 28.85 0
      vertex 14.095 28.85 8.07133
      vertex 14.1473 28.85 7.86217
    endloop
  endfacet
  facet normal 0 1 0
    outer loop
      vertex 0 28.85 0
      vertex 14.1473 28.85 7.86217
      vertex 14.22 28.85 7.65914
    endloop
  endfacet
  facet normal 0 1 0
    outer loop
      vertex 0 28.85 0
      vertex 14.22 28.85 7.65914
      vertex 14.3122 28.85 7.46422
    endloop
  endfacet
  facet normal 0 1 0
    outer loop
      vertex 0 28.85 0
      vertex 14.3122 28.85 7.46422
      vertex 14.423 28.85 7.27926
    endloop
  endfacet
  facet normal 0 1 0
    outer loop
      vertex 16.4654 28.85 6.31331
      vertex 0 28.85 0
      vertex 16.25 28.85 6.30273
    endloop
  endfacet
  facet normal 0 1 0
    outer loop
      vertex 14.1473 28.85 9.13783
      vertex 0 28.85 0
      vertex 0 28.85 27
    endloop
  endfacet
  facet normal 0 1 0
    outer loop
      vertex 14.5515 28.85 7.10607
      vertex 0 28.85 0
      vertex 14.423 28.85 7.27926
    endloop
  endfacet
  facet normal 0 1 0
    outer loop
      vertex 14.6963 28.85 6.9463
      vertex 0 28.85 0
      vertex 14.5515 28.85 7.10607
    endloop
  endfacet
  facet normal 0 1 0
    outer loop
      vertex 14.8561 28.85 6.80149
      vertex 0 28.85 0
      vertex 14.6963 28.85 6.9463
    endloop
  endfacet
  facet normal 0 1 0
    outer loop
      vertex 15.0293 28.85 6.67304
      vertex 0 28.85 0
      vertex 14.8561 28.85 6.80149
    endloop
  endfacet
  facet normal 0 1 0
    outer loop
      vertex 15.2142 28.85 6.56218
      vertex 0 28.85 0
      vertex 15.0293 28.85 6.67304
    endloop
  endfacet
  facet normal 0 1 0
    outer loop
      vertex 15.4091 28.85 6.46999
      vertex 0 28.85 0
      vertex 15.2142 28.85 6.56218
    endloop
  endfacet
  facet normal 0 1 0
    outer loop
      vertex 15.6122 28.85 6.39735
      vertex 0 28.85 0
      vertex 15.4091 28.85 6.46999
    endloop
  endfacet
  facet normal 0 1 0
    outer loop
      vertex 15.8213 28.85 6.34495
      vertex 0 28.85 0
      vertex 15.6122 28.85 6.39735
    endloop
  endfacet
  facet normal 0 1 0
    outer loop
      vertex 16.0346 28.85 6.31331
      vertex 0 28.85 0
      vertex 15.8213 28.85 6.34495
    endloop
  endfacet
  facet normal 0 1 0
    outer loop
      vertex 16.25 28.85 6.30273
      vertex 0 28.85 0
      vertex 16.0346 28.85 6.31331
    endloop
  endfacet
  facet normal 0 0 -1
    outer loop
      vertex 0 0 0
      vertex 65 28.85 0
      vertex 65 0 0
    endloop
  endfacet
  facet normal -0 0 -1
    outer loop
      vertex 65 28.85 0
      vertex 0 0 0
      vertex 0 28.85 0
    endloop
  endfacet
  facet normal 0 -1 -0
    outer loop
      vertex 32 0 27
      vertex 16.6787 0 10.655
      vertex 32 0 19
    endloop
  endfacet
  facet normal 0 -1 0
    outer loop
      vertex 32 0 19
      vertex 48.5346 0 10.6867
      vertex 48.75 0 10.6973
    endloop
  endfacet
  facet normal 0 -1 0
    outer loop
      vertex 16.8878 0 10.6027
      vertex 32 0 19
      vertex 16.6787 0 10.655
    endloop
  endfacet
  facet normal 0 -1 0
    outer loop
      vertex 32 0 19
      vertex 48.3213 0 10.655
      vertex 48.5346 0 10.6867
    endloop
  endfacet
  facet normal 0 -1 0
    outer loop
      vertex 17.0909 0 10.53
      vertex 32 0 19
      vertex 16.8878 0 10.6027
    endloop
  endfacet
  facet normal 0 -1 0
    outer loop
      vertex 32 0 19
      vertex 48.1122 0 10.6027
      vertex 48.3213 0 10.655
    endloop
  endfacet
  facet normal 0 -1 0
    outer loop
      vertex 17.2858 0 10.4378
      vertex 32 0 19
      vertex 17.0909 0 10.53
    endloop
  endfacet
  facet normal 0 -1 0
    outer loop
      vertex 32 0 19
      vertex 47.9091 0 10.53
      vertex 48.1122 0 10.6027
    endloop
  endfacet
  facet normal 0 -1 0
    outer loop
      vertex 17.4707 0 10.327
      vertex 32 0 19
      vertex 17.2858 0 10.4378
    endloop
  endfacet
  facet normal 0 -1 0
    outer loop
      vertex 32 0 19
      vertex 47.7142 0 10.4378
      vertex 47.9091 0 10.53
    endloop
  endfacet
  facet normal 0 -1 0
    outer loop
      vertex 17.6439 0 10.1985
      vertex 32 0 19
      vertex 17.4707 0 10.327
    endloop
  endfacet
  facet normal 0 -1 0
    outer loop
      vertex 32 0 19
      vertex 47.5293 0 10.327
      vertex 47.7142 0 10.4378
    endloop
  endfacet
  facet normal 0 -1 0
    outer loop
      vertex 17.8037 0 10.0537
      vertex 32 0 19
      vertex 17.6439 0 10.1985
    endloop
  endfacet
  facet normal 0 -1 0
    outer loop
      vertex 32 0 19
      vertex 47.3561 0 10.1985
      vertex 47.5293 0 10.327
    endloop
  endfacet
  facet normal 0 -1 0
    outer loop
      vertex 17.9485 0 9.89393
      vertex 32 0 19
      vertex 17.8037 0 10.0537
    endloop
  endfacet
  facet normal 0 -1 0
    outer loop
      vertex 32 0 19
      vertex 47.1963 0 10.0537
      vertex 47.3561 0 10.1985
    endloop
  endfacet
  facet normal 0 -1 0
    outer loop
      vertex 18.077 0 9.72074
      vertex 32 0 19
      vertex 17.9485 0 9.89393
    endloop
  endfacet
  facet normal 0 -1 0
    outer loop
      vertex 32 0 19
      vertex 47.0515 0 9.89393
      vertex 47.1963 0 10.0537
    endloop
  endfacet
  facet normal 0 -1 0
    outer loop
      vertex 18.1878 0 9.53578
      vertex 32 0 19
      vertex 18.077 0 9.72074
    endloop
  endfacet
  facet normal 0 -1 0
    outer loop
      vertex 32 0 19
      vertex 46.923 0 9.72074
      vertex 47.0515 0 9.89393
    endloop
  endfacet
  facet normal 0 -1 0
    outer loop
      vertex 18.28 0 9.34086
      vertex 32 0 19
      vertex 18.1878 0 9.53578
    endloop
  endfacet
  facet normal 0 -1 0
    outer loop
      vertex 32 0 19
      vertex 46.8122 0 9.53578
      vertex 46.923 0 9.72074
    endloop
  endfacet
  facet normal 0 -1 0
    outer loop
      vertex 18.3527 0 9.13783
      vertex 32 0 19
      vertex 18.28 0 9.34086
    endloop
  endfacet
  facet normal 0 -1 0
    outer loop
      vertex 32 0 19
      vertex 46.72 0 9.34086
      vertex 46.8122 0 9.53578
    endloop
  endfacet
  facet normal 0 -1 0
    outer loop
      vertex 18.405 0 8.92867
      vertex 32 0 19
      vertex 18.3527 0 9.13783
    endloop
  endfacet
  facet normal 0 -1 0
    outer loop
      vertex 32 0 19
      vertex 46.6473 0 9.13783
      vertex 46.72 0 9.34086
    endloop
  endfacet
  facet normal 0 -1 0
    outer loop
      vertex 18.4367 0 8.71537
      vertex 32 0 19
      vertex 18.405 0 8.92867
    endloop
  endfacet
  facet normal 0 -1 0
    outer loop
      vertex 32 0 19
      vertex 46.595 0 8.92867
      vertex 46.6473 0 9.13783
    endloop
  endfacet
  facet normal 0 -1 0
    outer loop
      vertex 18.4473 0 8.5
      vertex 32 0 19
      vertex 18.4367 0 8.71537
    endloop
  endfacet
  facet normal 0 -1 0
    outer loop
      vertex 32 0 19
      vertex 46.5633 0 8.71537
      vertex 46.595 0 8.92867
    endloop
  endfacet
  facet normal 0 -1 0
    outer loop
      vertex 18.4367 0 8.28463
      vertex 32 0 19
      vertex 18.4473 0 8.5
    endloop
  endfacet
  facet normal 0 -1 0
    outer loop
      vertex 32 0 19
      vertex 46.5527 0 8.5
      vertex 46.5633 0 8.71537
    endloop
  endfacet
  facet normal 0 -1 0
    outer loop
      vertex 18.405 0 8.07133
      vertex 32 0 19
      vertex 18.4367 0 8.28463
    endloop
  endfacet
  facet normal 0 -1 0
    outer loop
      vertex 32 0 19
      vertex 46.5633 0 8.28463
      vertex 46.5527 0 8.5
    endloop
  endfacet
  facet normal 0 -1 0
    outer loop
      vertex 46.595 0 8.07133
      vertex 32 0 19
      vertex 18.405 0 8.07133
    endloop
  endfacet
  facet normal 0 -1 0
    outer loop
      vertex 32 0 19
      vertex 46.595 0 8.07133
      vertex 46.5633 0 8.28463
    endloop
  endfacet
  facet normal 0 -1 0
    outer loop
      vertex 18.3527 0 7.86217
      vertex 46.595 0 8.07133
      vertex 18.405 0 8.07133
    endloop
  endfacet
  facet normal 0 -1 0
    outer loop
      vertex 18.3527 0 7.86217
      vertex 46.6473 0 7.86217
      vertex 46.595 0 8.07133
    endloop
  endfacet
  facet normal 0 -1 0
    outer loop
      vertex 18.28 0 7.65914
      vertex 46.6473 0 7.86217
      vertex 18.3527 0 7.86217
    endloop
  endfacet
  facet normal 0 -1 0
    outer loop
      vertex 18.28 0 7.65914
      vertex 46.72 0 7.65914
      vertex 46.6473 0 7.86217
    endloop
  endfacet
  facet normal 0 -1 0
    outer loop
      vertex 18.1878 0 7.46422
      vertex 46.72 0 7.65914
      vertex 18.28 0 7.65914
    endloop
  endfacet
  facet normal 0 -1 0
    outer loop
      vertex 18.1878 0 7.46422
      vertex 46.8122 0 7.46422
      vertex 46.72 0 7.65914
    endloop
  endfacet
  facet normal 0 -1 0
    outer loop
      vertex 18.077 0 7.27926
      vertex 46.8122 0 7.46422
      vertex 18.1878 0 7.46422
    endloop
  endfacet
  facet normal 0 -1 0
    outer loop
      vertex 18.077 0 7.27926
      vertex 46.923 0 7.27926
      vertex 46.8122 0 7.46422
    endloop
  endfacet
  facet normal 0 -1 0
    outer loop
      vertex 17.9485 0 7.10607
      vertex 46.923 0 7.27926
      vertex 18.077 0 7.27926
    endloop
  endfacet
  facet normal 0 -1 0
    outer loop
      vertex 17.9485 0 7.10607
      vertex 47.0515 0 7.10607
      vertex 46.923 0 7.27926
    endloop
  endfacet
  facet normal 0 -1 0
    outer loop
      vertex 17.8037 0 6.9463
      vertex 47.0515 0 7.10607
      vertex 17.9485 0 7.10607
    endloop
  endfacet
  facet normal 0 -1 0
    outer loop
      vertex 17.8037 0 6.9463
      vertex 47.1963 0 6.9463
      vertex 47.0515 0 7.10607
    endloop
  endfacet
  facet normal 0 -1 0
    outer loop
      vertex 17.6439 0 6.80149
      vertex 47.1963 0 6.9463
      vertex 17.8037 0 6.9463
    endloop
  endfacet
  facet normal 0 -1 0
    outer loop
      vertex 17.6439 0 6.80149
      vertex 47.3561 0 6.80149
      vertex 47.1963 0 6.9463
    endloop
  endfacet
  facet normal 0 -1 0
    outer loop
      vertex 17.4707 0 6.67304
      vertex 47.3561 0 6.80149
      vertex 17.6439 0 6.80149
    endloop
  endfacet
  facet normal 0 -1 0
    outer loop
      vertex 17.4707 0 6.67304
      vertex 47.5293 0 6.67304
      vertex 47.3561 0 6.80149
    endloop
  endfacet
  facet normal 0 -1 0
    outer loop
      vertex 17.2858 0 6.56218
      vertex 47.5293 0 6.67304
      vertex 17.4707 0 6.67304
    endloop
  endfacet
  facet normal 0 -1 0
    outer loop
      vertex 17.2858 0 6.56218
      vertex 47.7142 0 6.56218
      vertex 47.5293 0 6.67304
    endloop
  endfacet
  facet normal 0 -1 0
    outer loop
      vertex 17.0909 0 6.46999
      vertex 47.7142 0 6.56218
      vertex 17.2858 0 6.56218
    endloop
  endfacet
  facet normal 0 -1 0
    outer loop
      vertex 17.0909 0 6.46999
      vertex 47.9091 0 6.46999
      vertex 47.7142 0 6.56218
    endloop
  endfacet
  facet normal 0 -1 0
    outer loop
      vertex 16.8878 0 6.39735
      vertex 47.9091 0 6.46999
      vertex 17.0909 0 6.46999
    endloop
  endfacet
  facet normal 0 -1 0
    outer loop
      vertex 16.8878 0 6.39735
      vertex 48.1122 0 6.39735
      vertex 47.9091 0 6.46999
    endloop
  endfacet
  facet normal 0 -1 0
    outer loop
      vertex 16.6787 0 6.34495
      vertex 48.1122 0 6.39735
      vertex 16.8878 0 6.39735
    endloop
  endfacet
  facet normal 0 -1 0
    outer loop
      vertex 16.6787 0 6.34495
      vertex 48.3213 0 6.34495
      vertex 48.1122 0 6.39735
    endloop
  endfacet
  facet normal 0 -1 0
    outer loop
      vertex 0 0 0
      vertex 16.6787 0 6.34495
      vertex 16.4654 0 6.31331
    endloop
  endfacet
  facet normal 0 -1 -0
    outer loop
      vertex 16.6787 0 6.34495
      vertex 0 0 0
      vertex 48.3213 0 6.34495
    endloop
  endfacet
  facet normal 0 -1 0
    outer loop
      vertex 0 0 0
      vertex 16.4654 0 6.31331
      vertex 16.25 0 6.30273
    endloop
  endfacet
  facet normal 0 -1 0
    outer loop
      vertex 65 0 0
      vertex 48.3213 0 6.34495
      vertex 0 0 0
    endloop
  endfacet
  facet normal 0 -1 0
    outer loop
      vertex 16.25 0 10.6973
      vertex 32 0 27
      vertex 0 0 27
    endloop
  endfacet
  facet normal 0 -1 0
    outer loop
      vertex 16.6787 0 10.655
      vertex 32 0 27
      vertex 16.4654 0 10.6867
    endloop
  endfacet
  facet normal 0 -1 0
    outer loop
      vertex 16.4654 0 10.6867
      vertex 32 0 27
      vertex 16.25 0 10.6973
    endloop
  endfacet
  facet normal 0 -1 0
    outer loop
      vertex 0 0 27
      vertex 16.0346 0 10.6867
      vertex 16.25 0 10.6973
    endloop
  endfacet
  facet normal 0 -1 0
    outer loop
      vertex 0 0 27
      vertex 15.8213 0 10.655
      vertex 16.0346 0 10.6867
    endloop
  endfacet
  facet normal 0 -1 0
    outer loop
      vertex 0 0 27
      vertex 15.6122 0 10.6027
      vertex 15.8213 0 10.655
    endloop
  endfacet
  facet normal 0 -1 0
    outer loop
      vertex 0 0 27
      vertex 15.4091 0 10.53
      vertex 15.6122 0 10.6027
    endloop
  endfacet
  facet normal 0 -1 0
    outer loop
      vertex 0 0 27
      vertex 15.2142 0 10.4378
      vertex 15.4091 0 10.53
    endloop
  endfacet
  facet normal 0 -1 0
    outer loop
      vertex 0 0 27
      vertex 15.0293 0 10.327
      vertex 15.2142 0 10.4378
    endloop
  endfacet
  facet normal 0 -1 0
    outer loop
      vertex 0 0 27
      vertex 14.8561 0 10.1985
      vertex 15.0293 0 10.327
    endloop
  endfacet
  facet normal 0 -1 0
    outer loop
      vertex 0 0 27
      vertex 14.6963 0 10.0537
      vertex 14.8561 0 10.1985
    endloop
  endfacet
  facet normal 0 -1 0
    outer loop
      vertex 0 0 27
      vertex 14.5515 0 9.89393
      vertex 14.6963 0 10.0537
    endloop
  endfacet
  facet normal 0 -1 0
    outer loop
      vertex 0 0 27
      vertex 14.423 0 9.72074
      vertex 14.5515 0 9.89393
    endloop
  endfacet
  facet normal 0 -1 0
    outer loop
      vertex 0 0 27
      vertex 14.3122 0 9.53578
      vertex 14.423 0 9.72074
    endloop
  endfacet
  facet normal 0 -1 0
    outer loop
      vertex 0 0 27
      vertex 14.22 0 9.34086
      vertex 14.3122 0 9.53578
    endloop
  endfacet
  facet normal 0 -1 0
    outer loop
      vertex 0 0 27
      vertex 14.1473 0 9.13783
      vertex 14.22 0 9.34086
    endloop
  endfacet
  facet normal 0 -1 0
    outer loop
      vertex 0 0 0
      vertex 14.1473 0 9.13783
      vertex 0 0 27
    endloop
  endfacet
  facet normal 0 -1 0
    outer loop
      vertex 14.1473 0 9.13783
      vertex 0 0 0
      vertex 14.095 0 8.92867
    endloop
  endfacet
  facet normal 0 -1 0
    outer loop
      vertex 14.095 0 8.92867
      vertex 0 0 0
      vertex 14.0633 0 8.71537
    endloop
  endfacet
  facet normal 0 -1 0
    outer loop
      vertex 14.0633 0 8.71537
      vertex 0 0 0
      vertex 14.0527 0 8.5
    endloop
  endfacet
  facet normal 0 -1 -0
    outer loop
      vertex 14.0527 0 8.5
      vertex 0 0 0
      vertex 14.0633 0 8.28463
    endloop
  endfacet
  facet normal 0 -1 -0
    outer loop
      vertex 14.0633 0 8.28463
      vertex 0 0 0
      vertex 14.095 0 8.07133
    endloop
  endfacet
  facet normal 0 -1 -0
    outer loop
      vertex 14.095 0 8.07133
      vertex 0 0 0
      vertex 14.1473 0 7.86217
    endloop
  endfacet
  facet normal 0 -1 -0
    outer loop
      vertex 14.1473 0 7.86217
      vertex 0 0 0
      vertex 14.22 0 7.65914
    endloop
  endfacet
  facet normal 0 -1 -0
    outer loop
      vertex 14.22 0 7.65914
      vertex 0 0 0
      vertex 14.3122 0 7.46422
    endloop
  endfacet
  facet normal 0 -1 0
    outer loop
      vertex 48.3213 0 6.34495
      vertex 65 0 0
      vertex 48.5346 0 6.31331
    endloop
  endfacet
  facet normal 0 -1 -0
    outer loop
      vertex 16.0346 0 6.31331
      vertex 0 0 0
      vertex 16.25 0 6.30273
    endloop
  endfacet
  facet normal 0 -1 -0
    outer loop
      vertex 15.8213 0 6.34495
      vertex 0 0 0
      vertex 16.0346 0 6.31331
    endloop
  endfacet
  facet normal 0 -1 -0
    outer loop
      vertex 15.6122 0 6.39735
      vertex 0 0 0
      vertex 15.8213 0 6.34495
    endloop
  endfacet
  facet normal 0 -1 -0
    outer loop
      vertex 15.4091 0 6.46999
      vertex 0 0 0
      vertex 15.6122 0 6.39735
    endloop
  endfacet
  facet normal 0 -1 -0
    outer loop
      vertex 15.2142 0 6.56218
      vertex 0 0 0
      vertex 15.4091 0 6.46999
    endloop
  endfacet
  facet normal 0 -1 -0
    outer loop
      vertex 15.0293 0 6.67304
      vertex 0 0 0
      vertex 15.2142 0 6.56218
    endloop
  endfacet
  facet normal 0 -1 -0
    outer loop
      vertex 14.8561 0 6.80149
      vertex 0 0 0
      vertex 15.0293 0 6.67304
    endloop
  endfacet
  facet normal 0 -1 -0
    outer loop
      vertex 14.6963 0 6.9463
      vertex 0 0 0
      vertex 14.8561 0 6.80149
    endloop
  endfacet
  facet normal 0 -1 -0
    outer loop
      vertex 14.5515 0 7.10607
      vertex 0 0 0
      vertex 14.6963 0 6.9463
    endloop
  endfacet
  facet normal 0 -1 -0
    outer loop
      vertex 14.423 0 7.27926
      vertex 0 0 0
      vertex 14.5515 0 7.10607
    endloop
  endfacet
  facet normal 0 -1 -0
    outer loop
      vertex 14.3122 0 7.46422
      vertex 0 0 0
      vertex 14.423 0 7.27926
    endloop
  endfacet
  facet normal 0 -1 0
    outer loop
      vertex 32 0 19
      vertex 48.75 0 10.6973
      vertex 65 0 19
    endloop
  endfacet
  facet normal 0 -1 0
    outer loop
      vertex 48.9654 0 10.6867
      vertex 65 0 19
      vertex 48.75 0 10.6973
    endloop
  endfacet
  facet normal 0 -1 0
    outer loop
      vertex 49.1787 0 10.655
      vertex 65 0 19
      vertex 48.9654 0 10.6867
    endloop
  endfacet
  facet normal 0 -1 0
    outer loop
      vertex 49.3878 0 10.6027
      vertex 65 0 19
      vertex 49.1787 0 10.655
    endloop
  endfacet
  facet normal 0 -1 0
    outer loop
      vertex 49.5909 0 10.53
      vertex 65 0 19
      vertex 49.3878 0 10.6027
    endloop
  endfacet
  facet normal 0 -1 0
    outer loop
      vertex 49.7858 0 10.4378
      vertex 65 0 19
      vertex 49.5909 0 10.53
    endloop
  endfacet
  facet normal 0 -1 0
    outer loop
      vertex 49.9707 0 10.327
      vertex 65 0 19
      vertex 49.7858 0 10.4378
    endloop
  endfacet
  facet normal 0 -1 0
    outer loop
      vertex 50.1439 0 10.1985
      vertex 65 0 19
      vertex 49.9707 0 10.327
    endloop
  endfacet
  facet normal 0 -1 0
    outer loop
      vertex 50.3037 0 10.0537
      vertex 65 0 19
      vertex 50.1439 0 10.1985
    endloop
  endfacet
  facet normal 0 -1 0
    outer loop
      vertex 50.4485 0 9.89393
      vertex 65 0 19
      vertex 50.3037 0 10.0537
    endloop
  endfacet
  facet normal 0 -1 0
    outer loop
      vertex 50.577 0 9.72074
      vertex 65 0 19
      vertex 50.4485 0 9.89393
    endloop
  endfacet
  facet normal 0 -1 0
    outer loop
      vertex 50.6878 0 9.53578
      vertex 65 0 19
      vertex 50.577 0 9.72074
    endloop
  endfacet
  facet normal 0 -1 0
    outer loop
      vertex 50.78 0 9.34086
      vertex 65 0 19
      vertex 50.6878 0 9.53578
    endloop
  endfacet
  facet normal 0 -1 0
    outer loop
      vertex 50.8527 0 9.13783
      vertex 65 0 19
      vertex 50.78 0 9.34086
    endloop
  endfacet
  facet normal 0 -1 0
    outer loop
      vertex 50.905 0 8.92867
      vertex 65 0 19
      vertex 50.8527 0 9.13783
    endloop
  endfacet
  facet normal 0 -1 0
    outer loop
      vertex 50.9367 0 8.71537
      vertex 65 0 19
      vertex 50.905 0 8.92867
    endloop
  endfacet
  facet normal 0 -1 0
    outer loop
      vertex 65 0 0
      vertex 50.9367 0 8.71537
      vertex 50.9473 0 8.5
    endloop
  endfacet
  facet normal 0 -1 0
    outer loop
      vertex 65 0 0
      vertex 50.9473 0 8.5
      vertex 50.9367 0 8.28463
    endloop
  endfacet
  facet normal 0 -1 0
    outer loop
      vertex 65 0 0
      vertex 50.9367 0 8.28463
      vertex 50.905 0 8.07133
    endloop
  endfacet
  facet normal 0 -1 0
    outer loop
      vertex 65 0 0
      vertex 50.905 0 8.07133
      vertex 50.8527 0 7.86217
    endloop
  endfacet
  facet normal 0 -1 0
    outer loop
      vertex 65 0 0
      vertex 50.8527 0 7.86217
      vertex 50.78 0 7.65914
    endloop
  endfacet
  facet normal 0 -1 0
    outer loop
      vertex 65 0 0
      vertex 50.78 0 7.65914
      vertex 50.6878 0 7.46422
    endloop
  endfacet
  facet normal 0 -1 0
    outer loop
      vertex 65 0 0
      vertex 50.6878 0 7.46422
      vertex 50.577 0 7.27926
    endloop
  endfacet
  facet normal 0 -1 0
    outer loop
      vertex 65 0 0
      vertex 50.577 0 7.27926
      vertex 50.4485 0 7.10607
    endloop
  endfacet
  facet normal 0 -1 0
    outer loop
      vertex 65 0 0
      vertex 50.4485 0 7.10607
      vertex 50.3037 0 6.9463
    endloop
  endfacet
  facet normal 0 -1 0
    outer loop
      vertex 65 0 0
      vertex 50.3037 0 6.9463
      vertex 50.1439 0 6.80149
    endloop
  endfacet
  facet normal 0 -1 0
    outer loop
      vertex 48.5346 0 6.31331
      vertex 65 0 0
      vertex 48.75 0 6.30273
    endloop
  endfacet
  facet normal 0 -1 0
    outer loop
      vertex 50.9367 0 8.71537
      vertex 65 0 0
      vertex 65 0 19
    endloop
  endfacet
  facet normal 0 -1 0
    outer loop
      vertex 49.9707 0 6.67304
      vertex 65 0 0
      vertex 50.1439 0 6.80149
    endloop
  endfacet
  facet normal 0 -1 0
    outer loop
      vertex 49.7858 0 6.56218
      vertex 65 0 0
      vertex 49.9707 0 6.67304
    endloop
  endfacet
  facet normal 0 -1 0
    outer loop
      vertex 49.5909 0 6.46999
      vertex 65 0 0
      vertex 49.7858 0 6.56218
    endloop
  endfacet
  facet normal 0 -1 0
    outer loop
      vertex 49.3878 0 6.39735
      vertex 65 0 0
      vertex 49.5909 0 6.46999
    endloop
  endfacet
  facet normal 0 -1 0
    outer loop
      vertex 49.1787 0 6.34495
      vertex 65 0 0
      vertex 49.3878 0 6.39735
    endloop
  endfacet
  facet normal 0 -1 0
    outer loop
      vertex 48.9654 0 6.31331
      vertex 65 0 0
      vertex 49.1787 0 6.34495
    endloop
  endfacet
  facet normal 0 -1 0
    outer loop
      vertex 48.75 0 6.30273
      vertex 65 0 0
      vertex 48.9654 0 6.31331
    endloop
  endfacet
endsolid OpenSCAD_Model
